<svg width="194" height="113" viewBox="0 0 194 113" fill="none" xmlns="http://www.w3.org/2000/svg">
<path d="M152.343 89.1335C152.062 89.1335 151.731 89.0145 151.348 88.7765C150.966 88.565 150.622 88.3006 150.316 87.9833C150.036 87.6396 149.895 87.2959 149.895 86.9522C149.895 86.5027 150.074 85.9342 150.431 85.2468C150.788 84.5594 151.221 83.8455 151.731 83.1052C152.266 82.3648 152.776 81.6774 153.26 81.0428C153.77 80.3818 154.178 79.853 154.484 79.4564C154.841 78.9805 155.007 78.7161 154.981 78.6632C154.956 78.5839 154.943 78.5046 154.943 78.4253C154.229 78.7954 153.426 79.3507 152.534 80.091C151.642 80.8049 150.788 81.5584 149.972 82.3516C149.156 83.1448 148.493 83.8587 147.983 84.4933C147.626 84.9163 147.282 85.3658 146.951 85.8417C146.645 86.2912 146.339 86.7539 146.033 87.2298C145.855 87.4942 145.625 87.7718 145.345 88.0627C145.09 88.3535 144.797 88.4989 144.465 88.4989C144.287 88.4989 144.121 88.4328 143.968 88.3006C143.841 88.1684 143.777 88.0098 143.777 87.8247C143.777 87.4545 144.007 86.8993 144.465 86.159C144.95 85.3922 145.447 84.5594 145.957 83.6604C146.288 83.0787 146.645 82.4838 147.027 81.8757C147.435 81.2411 147.779 80.6727 148.06 80.1703C148.366 79.668 148.519 79.3242 148.519 79.1391H148.48C148.404 79.1391 148.226 79.2053 147.945 79.3375C147.69 79.4697 147.55 79.549 147.525 79.5754C146.275 80.4479 145.077 81.532 143.93 82.8275C142.808 84.1231 141.776 85.3526 140.833 86.5159C140.654 86.7539 140.463 87.0051 140.259 87.2695C140.055 87.5074 139.851 87.7454 139.647 87.9833C139.545 88.0891 139.405 88.1816 139.227 88.261C139.048 88.3138 138.883 88.3403 138.73 88.3403C138.577 88.3403 138.36 88.2874 138.08 88.1816C137.825 88.0759 137.697 87.8908 137.697 87.6264C137.697 87.3091 137.837 86.8464 138.118 86.2383C138.398 85.6302 138.742 84.9427 139.15 84.176C139.584 83.4092 140.03 82.6557 140.489 81.9154C140.973 81.1486 141.406 80.4611 141.789 79.853C142.197 79.2185 142.49 78.7558 142.668 78.4649C141.878 79.1788 141.164 79.8398 140.527 80.4479C139.915 81.0296 139.214 81.8228 138.424 82.8275C138.373 82.8804 138.271 82.9862 138.118 83.1448C137.965 83.3035 137.812 83.396 137.659 83.4224C137.608 83.4224 137.544 83.3828 137.468 83.3035C137.417 83.2241 137.404 83.158 137.429 83.1052C137.455 82.973 137.633 82.7086 137.965 82.312C138.296 81.8889 138.704 81.413 139.188 80.8842C139.673 80.3554 140.157 79.8266 140.642 79.2978C141.126 78.769 141.547 78.3063 141.903 77.9097C142.286 77.5131 142.515 77.2619 142.592 77.1561C143.153 76.548 143.65 76.0589 144.083 75.6887C144.542 75.3186 144.975 75.1335 145.383 75.1335C145.613 75.1335 145.88 75.2392 146.186 75.4508C146.492 75.6623 146.645 75.9135 146.645 76.2043C146.645 76.3101 146.62 76.3762 146.569 76.4026C145.421 77.3809 144.402 78.5046 143.509 79.7737C142.617 81.0164 141.776 82.2591 140.986 83.5018C140.96 83.5282 140.871 83.6736 140.718 83.938C140.591 84.2024 140.438 84.4933 140.259 84.8105C140.081 85.1278 139.928 85.4054 139.8 85.6434C139.673 85.8814 139.622 85.9871 139.647 85.9607C140.998 84.6387 142.413 83.2374 143.892 81.7567C145.396 80.2496 146.849 78.888 148.251 77.6717C148.455 77.4866 148.684 77.328 148.939 77.1958C149.194 77.0636 149.462 76.9975 149.742 76.9975C150.048 76.9975 150.29 77.1033 150.469 77.3148C150.673 77.4999 150.775 77.751 150.775 78.0683C150.775 78.412 150.673 78.7558 150.469 79.0995C150.265 79.4432 150.074 79.7605 149.895 80.0513C149.64 80.5273 149.36 81.0032 149.054 81.4791C148.774 81.955 148.57 82.3384 148.442 82.6292C149.615 81.5452 150.737 80.5008 151.807 79.4961C152.878 78.4649 153.961 77.5792 155.058 76.8389C155.312 76.6538 155.618 76.5612 155.975 76.5612C156.205 76.5612 156.498 76.6009 156.855 76.6802C157.237 76.7595 157.569 76.8785 157.849 77.0372C158.155 77.1958 158.308 77.4205 158.308 77.7114C158.308 77.87 158.257 78.0287 158.155 78.1873C158.053 78.3195 157.938 78.4385 157.811 78.5442L156.014 80.1307C155.682 80.4479 155.274 80.8974 154.79 81.4791C154.331 82.0343 153.872 82.6557 153.413 83.3431C152.98 84.0041 152.61 84.6916 152.304 85.4054C152.024 86.1193 151.884 86.7803 151.884 87.3884C151.884 87.7586 151.973 87.9437 152.151 87.9437C152.253 87.9437 152.368 87.9172 152.496 87.8644C152.623 87.785 152.763 87.7057 152.916 87.6264C153.452 87.3091 154.025 86.8464 154.637 86.2383C155.249 85.6302 155.848 84.9824 156.434 84.295C157.046 83.6075 157.581 82.9994 158.04 82.4706C158.499 81.9418 158.843 81.6113 159.073 81.4791C159.124 81.4262 159.187 81.413 159.264 81.4394C159.366 81.4659 159.417 81.5188 159.417 81.5981C159.417 81.7038 159.366 81.8228 159.264 81.955C159.162 82.0872 159.085 82.193 159.034 82.2723C158.601 82.8011 158.193 83.3167 157.811 83.819C157.454 84.295 157.046 84.7973 156.587 85.3261C156.052 85.9607 155.453 86.6349 154.79 87.3488C154.153 88.0362 153.477 88.5915 152.763 89.0145C152.661 89.0938 152.521 89.1335 152.343 89.1335Z" fill="#1F1B1D"/>
<path d="M130.507 89.1335C130.069 89.1335 129.541 88.9643 128.923 88.6258C128.305 88.2874 127.88 87.923 127.649 87.5325C127.494 87.2721 127.417 86.9597 127.417 86.5953C127.417 85.7622 127.713 84.6558 128.305 83.2761C128.923 81.8703 129.696 80.3604 130.623 78.7464C131.035 78.0175 131.563 77.1714 132.206 76.2082C132.876 75.245 133.623 74.2557 134.447 73.2404C135.271 72.1991 136.133 71.2099 137.035 70.2727C137.962 69.3355 138.876 68.5155 139.777 67.8126C140.704 67.1097 141.58 66.6151 142.404 66.3287C142.739 66.1986 143.035 66.1335 143.292 66.1335C143.782 66.1335 144.116 66.3027 144.297 66.6411C144.503 66.9535 144.773 67.2138 145.108 67.4221C145.314 67.5523 145.417 67.7605 145.417 68.0469C145.417 68.6457 145.095 69.3616 144.451 70.1946C143.807 71.0277 142.97 71.9128 141.94 72.85C140.91 73.7871 139.803 74.7243 138.618 75.6615C137.434 76.5726 136.288 77.4187 135.181 78.1997C134.099 78.9807 133.172 79.6315 132.4 80.1522C131.627 80.6728 131.138 80.9982 130.932 81.1284C130.546 81.8573 130.185 82.6904 129.85 83.6275C129.515 84.5647 129.348 85.4498 129.348 86.2829C129.348 86.5953 129.387 86.9467 129.464 87.3372C129.567 87.7017 129.824 87.8839 130.236 87.8839C130.623 87.8839 131.073 87.7407 131.588 87.4544C132.103 87.168 132.606 86.8556 133.095 86.5172C133.584 86.1527 133.97 85.8533 134.254 85.6191C134.923 85.0724 135.515 84.5127 136.03 83.9399C136.546 83.3672 137.151 82.7164 137.846 81.9875C137.897 81.9354 137.949 81.8964 138 81.8703C138.052 81.8183 138.116 81.7922 138.194 81.7922C138.348 81.7922 138.425 81.8833 138.425 82.0656C138.425 82.2218 138.361 82.365 138.232 82.4951C137.202 83.6406 136.121 84.8251 134.988 86.0486C133.88 87.2721 132.644 88.2354 131.279 88.9382C131.022 89.0684 130.764 89.1335 130.507 89.1335ZM132.168 79.0978C132.554 78.9677 133.095 78.6553 133.79 78.1606C134.485 77.64 135.258 77.0282 136.108 76.3253C136.983 75.6224 137.859 74.8805 138.734 74.0995C139.636 73.2925 140.46 72.5245 141.206 71.7956C141.979 71.0407 142.61 70.4029 143.099 69.8822C143.614 69.3355 143.91 68.958 143.988 68.7498C144.039 68.5936 144.065 68.4895 144.065 68.4374C144.065 68.2291 143.962 68.0859 143.756 68.0078C143.576 67.9298 143.37 67.8907 143.138 67.8907C143.009 67.8907 142.88 67.9037 142.752 67.9297C142.623 67.9558 142.507 67.9818 142.404 68.0078C141.966 68.164 141.387 68.5545 140.666 69.1793C139.945 69.7781 139.172 70.52 138.348 71.4051C137.524 72.2642 136.7 73.1754 135.876 74.1386C135.078 75.1018 134.344 76.026 133.674 76.9111C133.03 77.7702 132.528 78.4991 132.168 79.0978Z" fill="#1F1B1D"/>
<path d="M118.522 89.1335C117.808 89.1335 117.278 88.8201 116.934 88.1932C116.589 87.5391 116.417 86.8714 116.417 86.1901C116.417 85.2635 116.638 84.2687 117.082 83.2058C117.525 82.1157 118.054 81.08 118.67 80.0989C119.31 79.1178 119.876 78.3138 120.368 77.6869C120.492 77.5234 120.652 77.4417 120.849 77.4417C121.07 77.4417 121.292 77.537 121.513 77.7278C122.03 77.319 122.621 76.9511 123.286 76.6241C123.975 76.297 124.64 76.1335 125.28 76.1335C126.388 76.1335 126.942 76.7603 126.942 78.014C126.942 79.2131 126.671 80.3169 126.13 81.3253C125.613 82.3337 125.034 83.3148 124.394 84.2687C124.222 84.514 124.049 84.7456 123.877 84.9637C123.729 85.1817 123.557 85.3997 123.36 85.6178C124.443 85.2907 125.391 84.7456 126.204 83.9825C127.016 83.2194 127.816 82.4291 128.604 81.6115C128.703 81.5025 128.789 81.4207 128.863 81.3662C128.961 81.2844 129.084 81.2435 129.232 81.2435C129.355 81.2435 129.417 81.3389 129.417 81.5297C129.417 81.557 129.38 81.6251 129.306 81.7341C129.232 81.8431 129.183 81.9249 129.158 81.9794C128.346 83.0695 127.336 84.0916 126.13 85.0454C124.948 85.9721 123.705 86.5444 122.4 86.7624C121.932 87.2802 121.341 87.8117 120.627 88.3568C119.913 88.8746 119.211 89.1335 118.522 89.1335ZM121.403 85.9039C121.501 85.9039 121.587 85.9039 121.661 85.9039C121.76 85.9039 121.858 85.8903 121.957 85.863C122.449 85.209 122.954 84.4322 123.471 83.5329C124.012 82.6335 124.468 81.7069 124.837 80.753C125.207 79.7718 125.391 78.8861 125.391 78.0957C125.391 77.6052 125.182 77.3599 124.763 77.3599C124.345 77.3599 123.865 77.4962 123.323 77.7687C122.781 78.0412 122.326 78.3274 121.957 78.6272V78.7498C121.957 79.0224 121.76 79.4176 121.366 79.9354C120.996 80.4259 120.59 80.9301 120.147 81.448C119.728 81.9658 119.421 82.4018 119.224 82.7561C119.15 83.6555 119.31 84.405 119.704 85.0046C120.098 85.6041 120.664 85.9039 121.403 85.9039ZM118.559 88.4385C119.027 88.4385 119.482 88.2477 119.925 87.8662C120.393 87.4846 120.787 87.1303 121.107 86.8033C120.516 86.7488 119.975 86.5308 119.482 86.1492C119.014 85.7404 118.583 85.2907 118.189 84.8001C118.116 84.9637 118.017 85.2771 117.894 85.7404C117.771 86.2037 117.709 86.667 117.709 87.1303C117.709 87.4846 117.771 87.7981 117.894 88.0706C118.017 88.3159 118.239 88.4385 118.559 88.4385Z" fill="#1F1B1D"/>
<path d="M109.464 89.1335C109.068 89.1335 108.606 89.0035 108.078 88.7437C107.551 88.4838 107.287 88.1329 107.287 87.6911C107.287 87.3013 107.432 86.8075 107.722 86.2098C108.012 85.612 108.369 84.9753 108.791 84.2996C109.213 83.6239 109.648 82.9742 110.097 82.3504C110.545 81.7007 110.928 81.155 111.245 80.7131C111.588 80.2453 111.799 79.9335 111.878 79.7776C112.247 79.2838 112.472 78.9719 112.551 78.842C112.63 78.712 112.683 78.6081 112.709 78.5301C112.498 78.686 112.168 78.9329 111.72 79.2708C111.271 79.5826 110.823 79.9075 110.374 80.2453C109.925 80.5832 109.596 80.8431 109.384 81.025C107.907 82.2985 106.667 83.5199 105.664 84.6894C104.688 85.8329 103.777 87.0544 102.933 88.3538C102.907 88.3798 102.841 88.4058 102.735 88.4318C102.63 88.4318 102.55 88.4318 102.498 88.4318C102.339 88.4318 102.102 88.3928 101.785 88.3148C101.495 88.2369 101.376 88.0679 101.429 87.8081C101.587 87.4182 101.798 87.0024 102.062 86.5606C102.326 86.1188 102.695 85.5211 103.17 84.7674C103.645 83.9877 104.265 82.8962 105.031 81.4928C105.268 81.051 105.664 80.3233 106.218 79.3098C106.799 78.2962 107.498 77.1397 108.316 75.8403C109.16 74.5408 110.097 73.2544 111.126 71.9809C112.181 70.6815 113.316 69.525 114.53 68.5115C115.744 67.4979 117.01 66.7702 118.33 66.3284C118.673 66.1985 118.976 66.1335 119.24 66.1335C119.741 66.1335 120.084 66.3024 120.269 66.6403C120.48 66.9521 120.757 67.212 121.1 67.4199C121.311 67.5499 121.417 67.7578 121.417 68.0437C121.417 68.4595 121.061 69.0312 120.348 69.7589C119.662 70.4606 118.778 71.2403 117.696 72.0979C116.614 72.9295 115.48 73.7612 114.292 74.5928C113.105 75.4244 111.984 76.1911 110.928 76.8928C109.899 77.5945 109.107 78.1403 108.553 78.5301C108.448 78.738 108.237 79.0759 107.92 79.5437C107.63 79.9855 107.313 80.4663 106.97 80.986C106.627 81.5058 106.31 81.9866 106.02 82.4284C105.73 82.8702 105.545 83.1821 105.466 83.364C106.205 82.6883 106.983 81.9736 107.801 81.2199C108.646 80.4663 109.464 79.7386 110.255 79.0369C111.073 78.3352 111.786 77.7374 112.393 77.2437C112.524 77.1397 112.683 77.0747 112.868 77.0487C113.079 77.0227 113.25 77.0098 113.382 77.0098C113.751 77.0098 114.187 77.1657 114.688 77.4776C115.19 77.7894 115.44 78.1663 115.44 78.6081C115.44 78.8939 115.282 79.1798 114.965 79.4657C114.174 80.1674 113.369 80.986 112.551 81.9216C111.733 82.8312 110.994 83.7928 110.334 84.8064C110.15 85.1182 109.886 85.573 109.543 86.1708C109.226 86.7685 109.068 87.2493 109.068 87.6131C109.068 87.873 109.147 88.003 109.305 88.003C109.622 88.003 110.057 87.834 110.611 87.4962C111.192 87.1583 111.812 86.7295 112.472 86.2098C113.158 85.664 113.831 85.1052 114.49 84.5335C115.176 83.9617 115.783 83.429 116.311 82.9352C116.839 82.4414 117.221 82.0646 117.459 81.8047C117.617 81.6487 117.749 81.5708 117.855 81.5708C118.013 81.5708 118.092 81.6487 118.092 81.8047C118.092 81.8826 118.039 81.9996 117.934 82.1555C117.591 82.5973 117.089 83.1561 116.43 83.8318C115.77 84.4815 115.044 85.1572 114.253 85.8589C113.461 86.5346 112.696 87.1583 111.957 87.7301C111.245 88.2759 110.651 88.6917 110.176 88.9776C109.991 89.0815 109.754 89.1335 109.464 89.1335ZM109.384 77.0098C109.596 76.8538 109.952 76.6069 110.453 76.2691C110.981 75.9052 111.561 75.5024 112.195 75.0606C112.854 74.5928 113.501 74.138 114.134 73.6962C114.767 73.2284 115.295 72.8126 115.717 72.4487C116.562 71.7211 117.261 71.1233 117.815 70.6555C118.395 70.1877 118.897 69.642 119.319 69.0182C119.425 68.8883 119.491 68.7713 119.517 68.6674C119.543 68.5634 119.556 68.4725 119.556 68.3945C119.556 68.2386 119.477 68.1216 119.319 68.0437C119.187 67.9657 119.016 67.9267 118.804 67.9267C118.409 67.9267 117.894 68.1346 117.261 68.5504C116.628 68.9663 115.942 69.525 115.203 70.2267C114.464 70.9024 113.725 71.6431 112.986 72.4487C112.247 73.2544 111.561 74.06 110.928 74.8657C110.295 75.6453 109.78 76.36 109.384 77.0098Z" fill="#1F1B1D"/>
<path d="M96.6848 88.1335C95.1728 88.1335 94.4167 87.3225 94.4167 85.7005C94.4167 85.0682 94.5679 84.3397 94.8703 83.5149C95.198 82.6627 95.6264 81.8105 96.1556 80.9582C96.6848 80.106 97.277 79.3225 97.9322 78.6077C98.5874 77.8654 99.2552 77.2744 99.9356 76.8345C100.641 76.3672 101.296 76.1335 101.901 76.1335C102.103 76.1335 102.241 76.1885 102.317 76.2984C102.418 76.3809 102.493 76.5321 102.544 76.752C102.594 76.862 102.632 76.9857 102.657 77.1232C102.682 77.2606 102.72 77.3981 102.771 77.5355C102.872 77.728 102.96 77.9204 103.035 78.1129C103.111 78.3053 103.149 78.5115 103.149 78.7314C103.149 79.0063 103.086 79.2538 102.96 79.4737C102.834 79.6661 102.682 79.8448 102.506 80.0098C102.254 80.2572 101.876 80.5733 101.372 80.9582C100.868 81.3156 100.314 81.6867 99.7088 82.0716C99.1292 82.429 98.5622 82.7452 98.0078 83.0201C97.4786 83.295 97.0502 83.4599 96.7226 83.5149C96.4958 83.8998 96.2564 84.3809 96.0044 84.9582C95.7776 85.5081 95.6642 86.0166 95.6642 86.484C95.6642 86.7314 95.7146 86.9514 95.8154 87.1438C95.9414 87.3362 96.1304 87.4325 96.3824 87.4325C96.7856 87.4325 97.3148 87.2263 97.97 86.8139C98.6504 86.374 99.356 85.8517 100.087 85.2469C100.818 84.6146 101.485 84.0098 102.09 83.4325C102.72 82.8276 103.186 82.3603 103.489 82.0304L104.699 80.6283C104.85 80.4634 105.014 80.3809 105.19 80.3809C105.341 80.3809 105.417 80.4496 105.417 80.5871C105.417 80.752 105.203 81.0957 104.774 81.618C104.346 82.1129 103.829 82.6764 103.224 83.3087C102.645 83.9136 102.103 84.4771 101.599 84.9995C101.095 85.4943 100.767 85.8105 100.616 85.9479C100.087 86.4428 99.482 86.9376 98.8016 87.4325C98.1212 87.8998 97.4156 88.1335 96.6848 88.1335ZM97.3652 82.4428C97.6172 82.2778 97.9952 82.0166 98.4992 81.6593C99.0284 81.3019 99.5702 80.9032 100.125 80.4634C100.679 80.0235 101.145 79.5837 101.523 79.1438C101.926 78.7039 102.128 78.3191 102.128 77.9892C102.128 77.9067 102.115 77.838 102.09 77.783C102.065 77.7555 102.015 77.7417 101.939 77.7417C101.611 77.7417 101.221 77.9342 100.767 78.3191C100.314 78.7039 99.86 79.1713 99.4064 79.7211C98.9528 80.2435 98.537 80.7658 98.159 81.2881C97.8062 81.783 97.5416 82.1678 97.3652 82.4428Z" fill="#1F1B1D"/>
<path d="M75.568 89.1335C75.1215 89.1335 74.5832 88.9587 73.953 88.6093C73.3227 88.2598 72.8894 87.8834 72.6531 87.4802C72.4955 87.2114 72.4167 86.8888 72.4167 86.5124C72.4167 86.0285 72.5743 85.3296 72.8894 84.4156C73.2046 83.5016 73.756 82.3187 74.5438 80.8671C75.3316 79.4154 76.4214 77.6411 77.8132 75.5443C78.9686 73.8776 80.1635 72.2243 81.3977 70.5844C82.6319 68.9177 83.8136 67.5064 84.9428 66.3504C85.9669 65.1676 87.0305 64.1057 88.1334 63.1648C89.2363 62.197 90.3392 61.4443 91.4422 60.9067C92.5451 60.3421 93.5824 60.0867 94.554 60.1405C95.158 60.1674 95.6175 60.4362 95.9326 60.947C96.2478 61.4309 96.4053 61.9685 96.4053 62.5599C96.4053 62.6675 96.3922 62.775 96.3659 62.8825C96.3659 62.9632 96.3528 63.0573 96.3265 63.1648C96.2215 63.8638 95.8145 64.6568 95.1054 65.5439C94.3964 66.431 93.5167 67.3854 92.4663 68.4069C91.4159 69.4016 90.2999 70.4231 89.1182 71.4716C87.9364 72.52 86.7941 73.555 85.6912 74.5765C84.6145 75.598 83.6823 76.5658 82.8945 77.4798C82.1067 78.3938 81.5946 79.2138 81.3583 79.9396C81.3058 80.0471 81.2533 80.1815 81.2007 80.3428C81.1745 80.4773 81.1088 80.41 81.0038 80.1412C80.9513 79.9799 80.925 79.8455 80.925 79.738C80.925 79.2003 81.1745 78.5148 81.6734 77.6815C82.1986 76.8481 82.8682 75.9475 83.6823 74.9797C84.4964 74.012 85.363 73.0576 86.2821 72.1167C87.2274 71.149 88.1334 70.2618 89 69.4554C89.8666 68.622 90.6018 67.9499 91.2058 67.4391C91.3371 67.3316 91.5997 67.0628 91.9936 66.6327C92.4138 66.2025 92.8602 65.7052 93.3329 65.1407C93.8318 64.5493 94.252 63.9982 94.5934 63.4874C94.9348 62.9497 95.1054 62.5465 95.1054 62.2777C95.1054 62.0895 94.9479 61.9954 94.6328 61.9954C93.845 61.9954 92.834 62.3449 91.5997 63.0438C90.3918 63.7428 88.9212 64.9525 87.188 66.673C85.4549 68.3935 83.3935 70.7995 81.0038 73.891C80.7149 74.2405 80.2948 74.7916 79.7433 75.5443C79.2181 76.297 78.6535 77.1707 78.0495 78.1653C77.4455 79.1331 76.8547 80.1278 76.277 81.1493C75.7255 82.144 75.266 83.0849 74.8983 83.972C74.5569 84.8591 74.3863 85.5984 74.3863 86.1898C74.3863 86.5124 74.4256 86.8753 74.5044 87.2786C74.6095 87.6549 74.8721 87.8431 75.2922 87.8431C76.0012 87.8431 76.8678 87.534 77.892 86.9157C78.9424 86.2705 80.0059 85.6118 81.0826 84.9398C82.2117 84.2139 83.3015 83.4881 84.352 82.7623C85.4286 82.0365 86.3477 81.3375 87.1093 80.6654L88.3303 78.4073C88.7505 77.6546 89.2888 76.7809 89.9453 75.7862C90.6281 74.7916 91.3896 73.77 92.23 72.7216C93.0703 71.6463 93.95 70.6247 94.8691 69.657C95.8145 68.6892 96.7467 67.8424 97.6658 67.1166C98.6112 66.3907 99.504 65.88 100.344 65.5842C100.686 65.4498 100.988 65.3826 101.25 65.3826C101.749 65.3826 102.091 65.5574 102.274 65.9068C102.485 66.2294 102.76 66.4983 103.102 66.7133C103.312 66.8477 103.417 67.0628 103.417 67.3585C103.417 67.9768 103.089 68.7161 102.432 69.5763C101.775 70.4366 100.922 71.3506 99.8716 72.3184C98.8212 73.2861 97.6921 74.2539 96.4841 75.2217C95.2761 76.1626 94.1076 77.0363 92.9784 77.8428C91.8755 78.6492 90.9301 79.3213 90.1423 79.859C89.3545 80.3966 88.8555 80.7326 88.6455 80.8671C88.2516 81.6198 87.8839 82.48 87.5425 83.4478C87.2012 84.4156 87.0305 85.3296 87.0305 86.1898C87.0305 86.5124 87.0699 86.8753 87.1487 87.2786C87.2537 87.6549 87.5163 87.8431 87.9364 87.8431C88.3303 87.8431 88.7899 87.6953 89.3151 87.3996C89.8403 87.1038 90.3524 86.7812 90.8513 86.4318C91.3503 86.0554 91.7442 85.7463 92.033 85.5043C92.7158 84.9398 93.3198 84.3618 93.845 83.7704C94.3702 83.179 94.9873 82.5069 95.6963 81.7542C95.7488 81.7004 95.8013 81.6601 95.8538 81.6332C95.9064 81.5794 95.972 81.5526 96.0508 81.5526C96.2084 81.5526 96.2871 81.6467 96.2871 81.8348C96.2871 81.9961 96.2215 82.144 96.0902 82.2784C95.0398 83.4612 93.9369 84.6844 92.7814 85.9479C91.6522 87.2114 90.3918 88.206 89 88.9319C88.7374 89.0663 88.4748 89.1335 88.2122 89.1335C87.7658 89.1335 87.2274 88.9587 86.5972 88.6093C85.9669 88.2598 85.5336 87.8834 85.2973 87.4802C85.1397 87.2114 85.061 86.8888 85.061 86.5124C85.061 86.0016 85.1791 85.3699 85.4155 84.6172C85.6518 83.8645 85.9801 83.0446 86.4002 82.1574C85.6124 82.7757 84.7459 83.4344 83.8005 84.1333C82.8551 84.8054 81.9098 85.464 80.9644 86.1092C80.019 86.7275 79.1393 87.292 78.3253 87.8028C77.5375 88.2867 76.881 88.663 76.3558 88.9319C76.0932 89.0663 75.8306 89.1335 75.568 89.1335ZM89.9059 78.7702C90.2998 78.6358 90.8513 78.3132 91.5603 77.8024C92.2694 77.2648 93.0572 76.633 93.9237 75.9072C94.8166 75.1814 95.7094 74.4152 96.6023 73.6087C97.5214 72.7754 98.3617 71.9823 99.1232 71.2296C99.911 70.45 100.554 69.7914 101.053 69.2537C101.579 68.6892 101.881 68.2994 101.959 68.0843C102.012 67.923 102.038 67.8155 102.038 67.7617C102.038 67.5467 101.933 67.3988 101.723 67.3182C101.539 67.2375 101.329 67.1972 101.093 67.1972C100.961 67.1972 100.83 67.2106 100.699 67.2375C100.568 67.2644 100.449 67.2913 100.344 67.3182C99.8979 67.4795 99.3071 67.8827 98.5718 68.5279C97.8365 69.1462 97.0487 69.9124 96.2084 70.8264C95.368 71.7135 94.5277 72.6544 93.6874 73.6491C92.8733 74.6437 92.1249 75.598 91.4422 76.5121C90.7857 77.3992 90.2736 78.1519 89.9059 78.7702Z" fill="#1F1B1D"/>
<path d="M56.887 89.1335C55.4745 89.1335 54.2675 88.8056 53.2659 88.1499C52.2643 87.4941 51.6607 86.3663 51.4553 84.7663C51.4296 84.6614 51.4167 84.5564 51.4167 84.4515C51.4167 84.3466 51.4167 84.2417 51.4167 84.1368C51.4167 83.245 51.5708 82.34 51.879 81.422C52.2129 80.4777 52.5981 79.5597 53.0347 78.6679C53.497 77.7761 53.8951 76.963 54.2289 76.2286C53.9978 76.2023 53.6896 76.1761 53.3044 76.1499C52.9448 76.1236 52.611 76.0318 52.3028 75.8745C52.0203 75.6909 51.879 75.4155 51.879 75.0482C51.879 74.9171 51.9304 74.8253 52.0331 74.7728C52.1615 74.7204 52.2899 74.6941 52.4184 74.6941C52.5724 74.6941 52.7265 74.7073 52.8806 74.7335C53.0347 74.7597 53.1503 74.7728 53.2273 74.7728C53.9464 74.7728 54.6013 74.5368 55.192 74.0646C55.8084 73.5663 56.3734 72.963 56.887 72.2548C57.4007 71.5466 57.8758 70.8384 58.3124 70.1302C58.749 69.3958 59.1599 68.7794 59.5452 68.281C59.4681 68.0974 59.3654 68.0056 59.237 68.0056C59.1086 67.9794 58.993 67.94 58.8903 67.8876C58.7875 67.8089 58.7105 67.6122 58.6591 67.2974C58.6078 66.8777 58.8261 66.5368 59.314 66.2745C59.802 66.0122 60.444 65.8023 61.2402 65.645C62.0363 65.4876 62.8838 65.3695 63.7827 65.2909C64.7073 65.2122 65.5676 65.1728 66.3638 65.1728C67.1856 65.1466 67.8405 65.1335 68.3285 65.1335C69.3044 65.1335 70.2931 65.1466 71.2948 65.1728C72.2964 65.1991 73.298 65.304 74.2996 65.4876C74.7105 65.5925 74.993 65.763 75.1471 65.9991C75.3269 66.2351 75.4167 66.4581 75.4167 66.6679C75.4167 66.8515 75.3526 67.022 75.2241 67.1794C75.1214 67.3105 74.993 67.3761 74.8389 67.3761C74.5821 67.3761 74.3638 67.1925 74.184 66.8253C73.7731 66.6417 73.2594 66.5499 72.6431 66.5499C72.0524 66.5236 71.5516 66.5105 71.1407 66.5105C70.7554 66.5105 70.1904 66.5368 69.4456 66.5892C68.7009 66.6154 67.9047 66.6679 67.0572 66.7466C66.2354 66.7991 65.4777 66.8909 64.7843 67.022C64.1166 67.1532 63.6415 67.3236 63.359 67.5335C63.1021 67.6909 62.7169 68.0581 62.2033 68.6351C61.7153 69.1859 61.1888 69.8155 60.6238 70.5236C60.0588 71.2318 59.5323 71.9007 59.0444 72.5302C58.5564 73.1597 58.1968 73.6318 57.9657 73.9466C59.4553 73.9728 60.932 73.9204 62.3959 73.7892C63.8598 73.6581 65.3365 73.5925 66.8261 73.5925H68.2514C68.7137 73.5925 69.176 73.6056 69.6383 73.6318C70.1262 73.6318 70.6013 73.6581 71.0636 73.7105C71.3718 73.7368 71.5259 73.8023 71.5259 73.9073C71.5259 73.9859 71.4232 74.0777 71.2177 74.1827C71.0123 74.2876 70.794 74.3794 70.5628 74.4581C70.3574 74.5368 70.2033 74.5892 70.1005 74.6155C68.6367 74.8515 67.1086 74.9827 65.5163 75.0089C63.924 75.0351 62.3445 75.1138 60.7779 75.245C59.237 75.3499 57.7731 75.704 56.3863 76.3073C56.2835 76.5433 56.0652 76.963 55.7313 77.5663C55.4232 78.1695 55.0893 78.8646 54.7297 79.6515C54.3702 80.4384 54.0492 81.2515 53.7667 82.0909C53.5098 82.9302 53.3814 83.7302 53.3814 84.4909C53.3814 85.3827 53.6382 86.1302 54.1519 86.7335C54.6912 87.3105 55.6415 87.5991 57.0026 87.5991C58.1583 87.5991 59.4681 87.4154 60.932 87.0482C62.3959 86.681 63.8854 86.222 65.4007 85.6712C66.9159 85.0941 68.3413 84.4909 69.6768 83.8614C71.0379 83.2318 72.1936 82.6417 73.1439 82.0909C73.298 82.0122 73.4007 81.9728 73.4521 81.9728C73.5291 81.9728 73.5676 82.0253 73.5676 82.1302C73.5676 82.2614 73.5163 82.3925 73.4135 82.5236C73.0026 83.1269 72.2964 83.7433 71.2948 84.3728C70.3188 85.0023 69.176 85.6056 67.8662 86.1827C66.5564 86.7335 65.2081 87.2318 63.8212 87.6777C62.4601 88.1236 61.1631 88.4777 59.9304 88.74C58.6976 89.0023 57.6832 89.1335 56.887 89.1335Z" fill="#1F1B1D"/>
<path d="M130.683 55.7418C128.763 55.7418 127.803 54.7978 127.803 52.9098C127.803 52.1738 127.995 51.3258 128.379 50.3658C128.795 49.3738 129.339 48.3818 130.011 47.3898C130.683 46.3978 131.435 45.4858 132.267 44.6538C133.099 43.7898 133.947 43.1018 134.811 42.5898C135.707 42.0458 136.539 41.7738 137.307 41.7738C137.563 41.7738 137.739 41.8378 137.835 41.9658C137.963 42.0618 138.059 42.2378 138.123 42.4938C138.187 42.6218 138.235 42.7658 138.267 42.9258C138.299 43.0858 138.347 43.2458 138.411 43.4058C138.539 43.6298 138.651 43.8538 138.747 44.0778C138.843 44.3018 138.891 44.5418 138.891 44.7978C138.891 45.1178 138.811 45.4058 138.651 45.6618C138.491 45.8858 138.299 46.0938 138.075 46.2858C137.755 46.5738 137.275 46.9418 136.635 47.3898C135.995 47.8058 135.291 48.2378 134.523 48.6858C133.787 49.1018 133.067 49.4698 132.363 49.7898C131.691 50.1098 131.147 50.3018 130.731 50.3658C130.443 50.8138 130.139 51.3738 129.819 52.0458C129.531 52.6858 129.387 53.2778 129.387 53.8218C129.387 54.1098 129.451 54.3658 129.579 54.5898C129.739 54.8138 129.979 54.9258 130.299 54.9258C130.811 54.9258 131.483 54.6858 132.315 54.2058C133.179 53.6938 134.075 53.0858 135.003 52.3818C135.931 51.6458 136.779 50.9418 137.547 50.2698C138.347 49.5658 138.939 49.0218 139.323 48.6378L140.859 47.0058C141.051 46.8138 141.259 46.7178 141.483 46.7178C141.675 46.7178 141.771 46.7978 141.771 46.9578C141.771 47.1498 141.499 47.5498 140.955 48.1578C140.411 48.7338 139.755 49.3898 138.987 50.1258C138.251 50.8298 137.563 51.4858 136.923 52.0938C136.283 52.6698 135.867 53.0378 135.675 53.1978C135.003 53.7738 134.235 54.3498 133.371 54.9258C132.507 55.4698 131.611 55.7418 130.683 55.7418ZM131.547 49.1178C131.867 48.9258 132.347 48.6218 132.987 48.2058C133.659 47.7898 134.347 47.3258 135.051 46.8138C135.755 46.3018 136.347 45.7898 136.827 45.2778C137.339 44.7658 137.595 44.3178 137.595 43.9338C137.595 43.8378 137.579 43.7578 137.547 43.6938C137.515 43.6618 137.451 43.6458 137.355 43.6458C136.939 43.6458 136.443 43.8698 135.867 44.3178C135.291 44.7658 134.715 45.3098 134.139 45.9498C133.563 46.5578 133.035 47.1658 132.555 47.7738C132.107 48.3498 131.771 48.7978 131.547 49.1178Z" fill="#1F1B1D"/>
<path d="M105.114 56.6538C104.57 56.6538 103.914 56.4458 103.146 56.0298C102.378 55.6138 101.85 55.1658 101.562 54.6858C101.37 54.3658 101.274 53.9818 101.274 53.5338C101.274 52.9578 101.466 52.1258 101.85 51.0378C102.234 49.9498 102.906 48.5418 103.866 46.8138C104.826 45.0858 106.154 42.9738 107.85 40.4778C109.258 38.4938 110.714 36.5258 112.218 34.5738C113.722 32.5898 115.162 30.9098 116.538 29.5338C117.786 28.1258 119.082 26.8618 120.426 25.7418C121.77 24.5898 123.114 23.6938 124.458 23.0538C125.802 22.3818 127.066 22.0778 128.25 22.1418C128.986 22.1738 129.546 22.4938 129.93 23.1018C130.314 23.6778 130.506 24.3178 130.506 25.0218C130.506 25.1498 130.49 25.2778 130.458 25.4058C130.458 25.5018 130.442 25.6138 130.41 25.7418C130.282 26.5738 129.786 27.5178 128.922 28.5738C128.058 29.6298 126.986 30.7658 125.706 31.9818C124.426 33.1658 123.066 34.3818 121.626 35.6298C120.186 36.8778 118.794 38.1098 117.45 39.3258C116.138 40.5418 115.002 41.6938 114.042 42.7818C113.082 43.8698 112.458 44.8458 112.17 45.7098C112.106 45.8378 112.042 45.9978 111.978 46.1898C111.946 46.3498 111.866 46.2698 111.738 45.9498C111.674 45.7578 111.642 45.5978 111.642 45.4698C111.642 44.8298 111.946 44.0138 112.554 43.0218C113.194 42.0298 114.01 40.9578 115.002 39.8058C115.994 38.6538 117.05 37.5178 118.17 36.3978C119.322 35.2458 120.426 34.1898 121.482 33.2298C122.538 32.2378 123.434 31.4378 124.17 30.8298C124.33 30.7018 124.65 30.3818 125.13 29.8698C125.642 29.3578 126.186 28.7658 126.762 28.0938C127.37 27.3898 127.882 26.7338 128.298 26.1258C128.714 25.4858 128.922 25.0058 128.922 24.6858C128.922 24.4618 128.73 24.3498 128.346 24.3498C127.386 24.3498 126.154 24.7658 124.65 25.5978C123.178 26.4298 121.386 27.8698 119.274 29.9178C117.162 31.9658 114.65 34.8298 111.738 38.5098C111.386 38.9258 110.874 39.5818 110.202 40.4778C109.562 41.3738 108.874 42.4138 108.138 43.5978C107.402 44.7498 106.682 45.9338 105.978 47.1498C105.306 48.3338 104.746 49.4538 104.298 50.5098C103.882 51.5658 103.674 52.4458 103.674 53.1498C103.674 53.5338 103.722 53.9658 103.818 54.4458C103.946 54.8938 104.266 55.1178 104.778 55.1178C105.642 55.1178 106.698 54.7498 107.946 54.0138C109.226 53.2458 110.522 52.4618 111.834 51.6618C113.21 50.7978 114.538 49.9338 115.818 49.0698C117.13 48.2058 118.25 47.3738 119.178 46.5738L120.666 43.8858C121.178 42.9898 121.834 41.9498 122.634 40.7658C123.466 39.5818 124.394 38.3658 125.418 37.1178C126.442 35.8378 127.514 34.6218 128.634 33.4698C129.786 32.3178 130.922 31.3098 132.042 30.4458C133.194 29.5818 134.282 28.9738 135.306 28.6218C135.722 28.4618 136.09 28.3818 136.41 28.3818C137.018 28.3818 137.434 28.5898 137.658 29.0058C137.914 29.3898 138.25 29.7098 138.666 29.9658C138.922 30.1258 139.05 30.3818 139.05 30.7338C139.05 31.4698 138.65 32.3498 137.85 33.3738C137.05 34.3978 136.01 35.4858 134.73 36.6378C133.45 37.7898 132.074 38.9418 130.602 40.0938C129.13 41.2138 127.706 42.2538 126.33 43.2138C124.986 44.1738 123.834 44.9738 122.874 45.6138C121.914 46.2538 121.306 46.6538 121.05 46.8138C120.57 47.7098 120.122 48.7338 119.706 49.8858C119.29 51.0378 119.082 52.1258 119.082 53.1498C119.082 53.5338 119.13 53.9658 119.226 54.4458C119.354 54.8938 119.674 55.1178 120.186 55.1178C120.666 55.1178 121.226 54.9418 121.866 54.5898C122.506 54.2378 123.13 53.8538 123.738 53.4378C124.346 52.9898 124.826 52.6218 125.178 52.3338C126.01 51.6618 126.746 50.9738 127.386 50.2698C128.026 49.5658 128.778 48.7658 129.642 47.8698C129.706 47.8058 129.77 47.7578 129.834 47.7258C129.898 47.6618 129.978 47.6298 130.074 47.6298C130.266 47.6298 130.362 47.7418 130.362 47.9658C130.362 48.1578 130.282 48.3338 130.122 48.4938C128.842 49.9018 127.498 51.3578 126.09 52.8618C124.714 54.3658 123.178 55.5498 121.482 56.4138C121.162 56.5738 120.842 56.6538 120.522 56.6538C119.978 56.6538 119.322 56.4458 118.554 56.0298C117.786 55.6138 117.258 55.1658 116.97 54.6858C116.778 54.3658 116.682 53.9818 116.682 53.5338C116.682 52.9258 116.826 52.1738 117.114 51.2778C117.402 50.3818 117.802 49.4058 118.314 48.3498C117.354 49.0858 116.298 49.8698 115.146 50.7018C113.994 51.5018 112.842 52.2858 111.69 53.0538C110.538 53.7898 109.466 54.4618 108.474 55.0698C107.514 55.6458 106.714 56.0938 106.074 56.4138C105.754 56.5738 105.434 56.6538 105.114 56.6538ZM122.586 44.3178C123.066 44.1578 123.738 43.7738 124.602 43.1658C125.466 42.5258 126.426 41.7738 127.482 40.9098C128.57 40.0458 129.658 39.1338 130.746 38.1738C131.866 37.1818 132.89 36.2378 133.818 35.3418C134.778 34.4138 135.562 33.6298 136.17 32.9898C136.81 32.3178 137.178 31.8538 137.274 31.5978C137.338 31.4058 137.37 31.2778 137.37 31.2138C137.37 30.9578 137.242 30.7818 136.986 30.6858C136.762 30.5898 136.506 30.5418 136.218 30.5418C136.058 30.5418 135.898 30.5578 135.738 30.5898C135.578 30.6218 135.434 30.6538 135.306 30.6858C134.762 30.8778 134.042 31.3578 133.146 32.1258C132.25 32.8618 131.29 33.7738 130.266 34.8618C129.242 35.9178 128.218 37.0378 127.194 38.2218C126.202 39.4058 125.29 40.5418 124.458 41.6298C123.658 42.6858 123.034 43.5818 122.586 44.3178Z" fill="#1F1B1D"/>
<path d="M102.283 38.0778C101.547 38.0778 101.179 37.8058 101.179 37.2618C101.179 36.8778 101.387 36.4618 101.803 36.0138C102.219 35.5658 102.827 35.2458 103.627 35.0538C104.107 34.9258 104.491 34.8618 104.779 34.8618C105.099 34.8298 105.403 34.7658 105.691 34.6698C105.563 35.2778 105.291 35.9338 104.875 36.6378C104.491 37.3418 103.979 37.7738 103.339 37.9338C103.019 38.0298 102.667 38.0778 102.283 38.0778ZM94.6029 57.1818C94.0909 57.1818 93.6109 56.9738 93.1629 56.5578C92.7469 56.1418 92.4909 55.6938 92.3949 55.2138C92.4909 54.6058 92.6989 53.8698 93.0189 53.0058C93.3709 52.1098 93.7709 51.1818 94.2189 50.2218C94.6669 49.2618 95.1149 48.3658 95.5629 47.5338C96.0109 46.6698 96.3949 45.9818 96.7149 45.4698C96.1069 46.0138 95.4509 46.6218 94.7469 47.2938C94.0749 47.9658 93.4349 48.5898 92.8269 49.1658C92.7949 49.1978 92.7149 49.2618 92.5869 49.3578C92.4909 49.4538 92.3949 49.5018 92.2989 49.5018C92.0749 49.5018 91.9629 49.4058 91.9629 49.2138C91.9629 49.0538 92.0269 48.9098 92.1549 48.7818C93.0189 47.8218 93.9149 46.8618 94.8429 45.9018C95.8029 44.9418 96.7309 43.9498 97.6269 42.9258C97.9149 42.5738 98.1549 42.3018 98.3469 42.1098C98.5709 41.8858 98.9069 41.7738 99.3549 41.7738C99.5469 41.7738 99.8349 41.8218 100.219 41.9178C100.635 41.9818 100.971 42.1098 101.227 42.3018C101.515 42.4938 101.563 42.7338 101.371 43.0218C101.147 43.3738 100.763 43.9498 100.219 44.7498C99.6749 45.5498 99.0509 46.4618 98.3469 47.4858C97.6749 48.5098 97.0029 49.5498 96.3309 50.6058C95.6909 51.6298 95.1629 52.5578 94.7469 53.3898C94.3309 54.2218 94.1229 54.8458 94.1229 55.2618C94.1229 55.4538 94.1869 55.5498 94.3149 55.5498C94.5069 55.5498 94.8269 55.3738 95.2749 55.0218C95.7549 54.6698 96.2189 54.3018 96.6669 53.9178C97.1469 53.5018 97.4669 53.2298 97.6269 53.1018C98.5549 52.3018 99.4669 51.4858 100.363 50.6538C101.259 49.7898 102.107 48.8938 102.907 47.9658C102.971 47.9018 103.051 47.8058 103.147 47.6778C103.275 47.5498 103.403 47.4858 103.531 47.4858C103.691 47.4858 103.771 47.5818 103.771 47.7738C103.771 47.9978 103.691 48.2218 103.531 48.4458C103.115 48.9578 102.651 49.4698 102.139 49.9818C101.627 50.4618 101.147 50.9418 100.699 51.4218C99.8669 52.2538 99.0509 53.0858 98.2509 53.9178C97.4829 54.7178 96.7149 55.5498 95.9469 56.4138C95.7869 56.6058 95.5789 56.7818 95.3229 56.9418C95.0989 57.1018 94.8589 57.1818 94.6029 57.1818Z" fill="#1F1B1D"/>
<path d="M85.0354 56.7498C84.6834 56.7498 84.2674 56.6058 83.7874 56.3178C83.3074 56.0618 82.8754 55.7418 82.4914 55.3578C82.1394 54.9418 81.9634 54.5258 81.9634 54.1098C81.9634 53.5658 82.1874 52.8778 82.6354 52.0458C83.0834 51.2138 83.6274 50.3498 84.2674 49.4538C84.9394 48.5578 85.5794 47.7258 86.1874 46.9578C86.8274 46.1578 87.3394 45.5178 87.7234 45.0378C88.1714 44.4618 88.3794 44.1418 88.3474 44.0778C88.3154 43.9818 88.2994 43.8858 88.2994 43.7898C87.4034 44.2378 86.3954 44.9098 85.2754 45.8058C84.1554 46.6698 83.0834 47.5818 82.0594 48.5418C81.0354 49.5018 80.2034 50.3658 79.5634 51.1338C79.1154 51.6458 78.6834 52.1898 78.2674 52.7658C77.8834 53.3098 77.4994 53.8698 77.1154 54.4458C76.8914 54.7658 76.6034 55.1018 76.2514 55.4538C75.9314 55.8058 75.5634 55.9818 75.1474 55.9818C74.9234 55.9818 74.7154 55.9018 74.5234 55.7418C74.3634 55.5818 74.2834 55.3898 74.2834 55.1658C74.2834 54.7178 74.5714 54.0458 75.1474 53.1498C75.7554 52.2218 76.3794 51.2138 77.0194 50.1258C77.4354 49.4218 77.8834 48.7018 78.3634 47.9658C78.8754 47.1978 79.3074 46.5098 79.6594 45.9018C80.0434 45.2938 80.2354 44.8778 80.2354 44.6538H80.1874C80.0914 44.6538 79.8674 44.7338 79.5154 44.8938C79.1954 45.0538 79.0194 45.1498 78.9874 45.1818C77.4194 46.2378 75.9154 47.5498 74.4754 49.1178C73.0674 50.6858 71.7714 52.1738 70.5874 53.5818C70.3634 53.8698 70.1234 54.1738 69.8674 54.4938C69.6114 54.7818 69.3554 55.0698 69.0994 55.3578C68.9714 55.4858 68.7954 55.5978 68.5714 55.6938C68.3474 55.7578 68.1394 55.7898 67.9474 55.7898C67.7554 55.7898 67.4834 55.7258 67.1314 55.5978C66.8114 55.4698 66.6514 55.2458 66.6514 54.9258C66.6514 54.5418 66.8274 53.9818 67.1794 53.2458C67.5314 52.5098 67.9634 51.6778 68.4754 50.7498C69.0194 49.8218 69.5794 48.9098 70.1554 48.0138C70.7634 47.0858 71.3074 46.2538 71.7874 45.5178C72.2994 44.7498 72.6674 44.1898 72.8914 43.8378C71.8994 44.7018 71.0034 45.5018 70.2034 46.2378C69.4354 46.9418 68.5554 47.9018 67.5634 49.1178C67.4994 49.1818 67.3714 49.3098 67.1794 49.5018C66.9874 49.6938 66.7954 49.8058 66.6034 49.8378C66.5394 49.8378 66.4594 49.7898 66.3634 49.6938C66.2994 49.5978 66.2834 49.5178 66.3154 49.4538C66.3474 49.2938 66.5714 48.9738 66.9874 48.4938C67.4034 47.9818 67.9154 47.4058 68.5234 46.7658C69.1314 46.1258 69.7394 45.4858 70.3474 44.8458C70.9554 44.2058 71.4834 43.6458 71.9314 43.1658C72.4114 42.6858 72.6994 42.3818 72.7954 42.2538C73.4994 41.5178 74.1234 40.9258 74.6674 40.4778C75.2434 40.0298 75.7874 39.8058 76.2994 39.8058C76.5874 39.8058 76.9234 39.9338 77.3074 40.1898C77.6914 40.4458 77.8834 40.7498 77.8834 41.1018C77.8834 41.2298 77.8514 41.3098 77.7874 41.3418C76.3474 42.5258 75.0674 43.8858 73.9474 45.4218C72.8274 46.9258 71.7714 48.4298 70.7794 49.9338C70.7474 49.9658 70.6354 50.1418 70.4434 50.4618C70.2834 50.7818 70.0914 51.1338 69.8674 51.5178C69.6434 51.9018 69.4514 52.2378 69.2914 52.5258C69.1314 52.8138 69.0674 52.9418 69.0994 52.9098C70.7954 51.3098 72.5714 49.6138 74.4274 47.8218C76.3154 45.9978 78.1394 44.3498 79.8994 42.8778C80.1554 42.6538 80.4434 42.4618 80.7634 42.3018C81.0834 42.1418 81.4194 42.0618 81.7714 42.0618C82.1554 42.0618 82.4594 42.1898 82.6834 42.4458C82.9394 42.6698 83.0674 42.9738 83.0674 43.3578C83.0674 43.7738 82.9394 44.1898 82.6834 44.6058C82.4274 45.0218 82.1874 45.4058 81.9634 45.7578C81.6434 46.3338 81.2914 46.9098 80.9074 47.4858C80.5554 48.0618 80.2994 48.5258 80.1394 48.8778C81.6114 47.5658 83.0194 46.3018 84.3634 45.0858C85.7074 43.8378 87.0674 42.7658 88.4434 41.8698C88.7634 41.6458 89.1474 41.5338 89.5954 41.5338C89.8834 41.5338 90.2514 41.5818 90.6994 41.6778C91.1794 41.7738 91.5954 41.9178 91.9474 42.1098C92.3314 42.3018 92.5234 42.5738 92.5234 42.9258C92.5234 43.1178 92.4594 43.3098 92.3314 43.5018C92.2034 43.6618 92.0594 43.8058 91.8994 43.9338L89.6434 45.8538C89.2274 46.2378 88.7154 46.7818 88.1074 47.4858C87.5314 48.1578 86.9554 48.9098 86.3794 49.7418C85.8354 50.5418 85.3714 51.3738 84.9874 52.2378C84.6354 53.1018 84.4594 53.9018 84.4594 54.6378C84.4594 55.0858 84.5714 55.3098 84.7954 55.3098C84.9234 55.3098 85.0674 55.2778 85.2274 55.2138C85.3874 55.1178 85.5634 55.0218 85.7554 54.9258C86.4274 54.5418 87.1474 53.9818 87.9154 53.2458C88.6834 52.5098 89.4354 51.7258 90.1714 50.8938C90.9394 50.0618 91.6114 49.3258 92.1874 48.6858C92.7634 48.0458 93.1954 47.6458 93.4834 47.4858C93.5474 47.4218 93.6274 47.4058 93.7234 47.4378C93.8514 47.4698 93.9154 47.5338 93.9154 47.6298C93.9154 47.7578 93.8514 47.9018 93.7234 48.0618C93.5954 48.2218 93.4994 48.3498 93.4354 48.4458C92.8914 49.0858 92.3794 49.7098 91.8994 50.3178C91.4514 50.8938 90.9394 51.5018 90.3634 52.1418C89.6914 52.9098 88.9394 53.7258 88.1074 54.5898C87.3074 55.4218 86.4594 56.0938 85.5634 56.6058C85.4354 56.7018 85.2594 56.7498 85.0354 56.7498Z" fill="#1F1B1D"/>
<path d="M59.9097 56.6059C59.6217 56.6059 59.2857 56.4779 58.9017 56.2219C58.5497 55.9659 58.2457 55.6779 57.9897 55.3579C57.7337 55.0059 57.6057 54.6859 57.6057 54.3979C57.6057 53.9179 57.7817 53.2779 58.1337 52.4779C58.4857 51.6459 58.8857 50.8299 59.3337 50.0299C59.8137 49.2299 60.1817 48.6379 60.4377 48.2539C59.9897 48.6379 59.4137 49.2619 58.7097 50.1259C58.0377 50.9579 57.3017 51.8539 56.5017 52.8139C55.7337 53.7419 54.9817 54.5419 54.2457 55.2139C53.5417 55.8859 52.9337 56.2219 52.4217 56.2219C51.7177 56.2219 51.1417 55.9819 50.6937 55.5019C50.2777 54.9899 50.0697 54.3819 50.0697 53.6779C50.0697 52.7179 50.3417 51.6939 50.8857 50.6059C51.4297 49.4859 52.1337 48.4139 52.9977 47.3899C53.8937 46.3339 54.8537 45.3739 55.8777 44.5099C56.9337 43.6459 57.9577 42.9579 58.9497 42.4459C59.9737 41.9339 60.8857 41.6779 61.6857 41.6779C62.5497 41.6779 63.2537 41.8859 63.7977 42.3019C64.3417 42.6859 64.6137 43.2779 64.6137 44.0779C64.6137 44.2059 64.5817 44.4459 64.5177 44.7979C64.4857 45.1499 64.3737 45.3259 64.1817 45.3259C64.0857 45.3259 63.9257 45.1819 63.7017 44.8939C63.5097 44.6059 63.2377 44.3179 62.8857 44.0299C62.5337 43.7419 62.0857 43.5979 61.5417 43.5979C60.6457 43.5979 59.7017 43.9339 58.7097 44.6059C57.7497 45.2459 56.8217 46.0779 55.9257 47.1019C55.0297 48.0939 54.2457 49.1179 53.5737 50.1739C52.9017 51.2299 52.3897 52.1419 52.0377 52.9099C51.9417 53.1339 51.8457 53.3739 51.7497 53.6299C51.6857 53.8859 51.6537 54.1419 51.6537 54.3979C51.6537 54.6859 51.7337 54.8299 51.8937 54.8299C52.0537 54.8299 52.3897 54.6539 52.9017 54.3019C53.4457 53.9499 53.8297 53.6939 54.0537 53.5339C55.1737 52.7339 56.2297 51.8219 57.2217 50.7979C58.2457 49.7739 59.1577 48.7179 59.9577 47.6299C60.2137 47.2779 60.4537 46.9259 60.6777 46.5739C60.9017 46.2219 61.1257 45.8859 61.3497 45.5659C61.5097 45.3419 61.6697 45.2299 61.8297 45.2299C62.1817 45.2299 62.5177 45.4699 62.8377 45.9499C63.1897 46.4299 63.3657 46.8459 63.3657 47.1979C63.3657 47.3579 63.3337 47.4539 63.2697 47.4859C63.2377 47.5179 63.1417 47.6139 62.9817 47.7739C62.5017 48.2539 62.0217 48.9259 61.5417 49.7899C61.0937 50.6539 60.6937 51.5339 60.3417 52.4299C60.0217 53.2939 59.7817 54.0299 59.6217 54.6379C59.5897 54.7339 59.5577 54.8619 59.5257 55.0219C59.5257 55.1499 59.6057 55.1979 59.7657 55.1659C60.0857 55.0699 60.5977 54.7179 61.3017 54.1099C62.0377 53.4699 62.8217 52.7499 63.6537 51.9499C64.5177 51.1179 65.2857 50.3499 65.9577 49.6459C66.6617 48.9419 67.1257 48.4459 67.3497 48.1579C67.4137 48.0939 67.4777 48.0299 67.5417 47.9659C67.6377 47.8699 67.7337 47.8219 67.8297 47.8219C68.0537 47.8219 68.1657 47.9339 68.1657 48.1579C68.1657 48.2859 67.9097 48.6699 67.3977 49.3099C66.8857 49.9179 66.2457 50.6379 65.4777 51.4699C64.7097 52.2699 63.9257 53.0699 63.1257 53.8699C62.3257 54.6379 61.6217 55.2939 61.0137 55.8379C60.4377 56.3499 60.0697 56.6059 59.9097 56.6059Z" fill="#1F1B1D"/>
<path d="M33.4277 57.2298C31.8917 57.2298 30.4677 56.9738 29.1557 56.4618C27.8437 55.9818 26.7717 55.2138 25.9397 54.1578C25.1077 53.1018 24.6117 51.7418 24.4517 50.0778C24.3237 48.6378 24.5477 47.0858 25.1237 45.4218C25.7317 43.7258 26.5957 42.0298 27.7157 40.3338C28.8677 38.6378 30.1797 37.0218 31.6517 35.4858C33.1237 33.9498 34.6757 32.5738 36.3077 31.3578C37.9717 30.1418 39.6197 29.1818 41.2517 28.4778C42.8837 27.7738 44.4197 27.4218 45.8597 27.4218C47.0117 27.4218 48.0357 27.7898 48.9317 28.5258C49.8277 29.2618 50.2757 30.2538 50.2757 31.5018C50.2757 32.4938 49.9557 33.3258 49.3157 33.9978C48.6757 34.6378 47.8597 34.9578 46.8677 34.9578C46.8357 34.9578 46.6757 34.9418 46.3877 34.9098C46.0997 34.8778 45.9397 34.7658 45.9077 34.5738C46.0677 34.1898 46.3557 33.8538 46.7717 33.5658C47.2197 33.2778 47.6197 32.8938 47.9717 32.4138C48.3237 31.9018 48.4517 31.1498 48.3557 30.1578C48.3237 29.5818 48.0837 29.1818 47.6357 28.9578C47.2197 28.7018 46.7397 28.5738 46.1957 28.5738C44.8517 28.5738 43.4277 28.9578 41.9237 29.7258C40.4197 30.4618 38.9317 31.4858 37.4597 32.7978C36.0197 34.0778 34.6437 35.5178 33.3317 37.1178C32.0517 38.7178 30.9157 40.3818 29.9237 42.1098C28.9637 43.8378 28.2277 45.5338 27.7157 47.1978C27.2037 48.8298 27.0117 50.3018 27.1397 51.6138C27.2997 53.0538 27.9397 54.1258 29.0597 54.8298C30.2117 55.5338 31.4437 55.8858 32.7557 55.8858C34.2597 55.8858 35.8277 55.6458 37.4597 55.1658C39.0917 54.6538 40.6917 54.0138 42.2597 53.2458C43.8597 52.4778 45.3477 51.6778 46.7237 50.8458C48.0997 50.0138 49.2837 49.2458 50.2757 48.5418C51.2997 47.8378 52.0357 47.3098 52.4837 46.9578C52.5157 46.9258 52.5477 46.9098 52.5797 46.9098C52.6437 46.9098 52.6757 46.9898 52.6757 47.1498C52.6757 47.2778 52.6437 47.4218 52.5797 47.5818C52.5477 47.7418 52.4517 47.9018 52.2917 48.0618C51.2677 49.1178 50.0037 50.1898 48.4997 51.2778C47.0277 52.3338 45.4277 53.3098 43.6997 54.2058C41.9717 55.1018 40.2117 55.8218 38.4197 56.3658C36.6597 56.9418 34.9957 57.2298 33.4277 57.2298Z" fill="black"/>
<path d="M89.4929 17.1335C13.9167 4.13352 8.32654 31.6335 3.49292 46.1334C-0.042814 56.74 3.73487 78.3831 14.9167 78.1334C25.2777 77.9021 24.9168 66.6334 12.9167 66.6334C6.24586 66.6334 -2.46649 74.9824 2.41694 89.6335C12.9164 121.133 67.4167 113.133 105.417 99.6335" stroke="#1F1B1D" stroke-width="2" stroke-linecap="round"/>
<path d="M89.4929 17.1335C127.993 22.6337 144.94 -16.8666 169.417 11.133C178.569 21.6024 181.917 45.6331 169.417 47.1331C159.675 48.3021 153.965 38.9348 165.417 33.6331C192.417 21.1332 195.917 68.1332 190.917 77.6332C178.102 101.981 137.774 91.1454 98.9167 108.133" stroke="#1F1B1D" stroke-width="2" stroke-linecap="round"/>
</svg>
