<svg width="480" height="480" viewBox="0 0 480 480" fill="none" xmlns="http://www.w3.org/2000/svg">
<g clip-path="url(#clip0_18_7134)">
<path d="M29 7.36914C29 187.309 33.498 291.163 29 469.299V480H11V468.7H11.0098C15.4834 291.38 11.0253 188.567 11.001 8.84375H11V0H29V7.36914Z" fill="#F5A86C" fill-opacity="0.15"/>
<path d="M68.9996 17.0381H68.9889C65.6267 115.712 65.6256 229.878 66.4684 319.453C66.8899 364.255 67.5216 402.88 68.0485 430.303C68.3119 444.014 68.5492 454.923 68.7204 462.403C68.8059 466.143 68.8748 469.025 68.9225 470.972C68.9463 471.945 68.9647 472.684 68.9772 473.18C68.9772 473.181 68.9771 473.183 68.9772 473.185H68.9996V480H50.9996V474.271C50.9991 474.25 50.9984 474.227 50.9977 474.2C50.9944 474.073 50.9894 473.884 50.983 473.634C50.9704 473.134 50.9523 472.39 50.9284 471.413C50.8805 469.457 50.811 466.565 50.7252 462.815C50.5536 455.316 50.3163 444.383 50.0524 430.648C49.5246 403.179 48.8906 364.494 48.4684 319.622C47.6247 229.949 47.6231 115.464 50.9996 16.3936V0H68.9996V17.0381Z" fill="#F5A86C" fill-opacity="0.15"/>
<path d="M109 12.7861C109.005 12.8596 109.011 12.9451 109.018 13.042C109.044 13.4283 109.082 14.0024 109.13 14.7676C109.226 16.2984 109.361 18.5985 109.521 21.71C109.84 27.934 110.26 37.4074 110.665 50.4736C111.475 76.606 112.227 117.116 112 174.758C111.752 237.791 111.002 311.348 110.313 369.135C109.969 398.031 109.641 422.99 109.398 440.724C109.277 449.59 109.177 456.652 109.107 461.497C109.073 463.919 109.046 465.788 109.027 467.051C109.018 467.682 109.011 468.162 109.006 468.484C109.003 468.645 109.002 468.767 109.001 468.849C109.001 468.866 109 468.881 109 468.895V480H91V467.866H91.0127C91.0171 467.579 91.023 467.218 91.0293 466.787C91.0478 465.526 91.0747 463.659 91.1094 461.238C91.1788 456.397 91.2791 449.339 91.4004 440.477C91.6429 422.751 91.9715 397.804 92.3154 368.921C93.0034 311.149 93.7526 237.648 94 174.687C94.2258 117.233 93.4768 76.9337 92.6738 51.0312C92.2724 38.0805 91.8572 28.7294 91.5439 22.6338C91.3873 19.5865 91.2564 17.3525 91.165 15.8896C91.1194 15.1584 91.0836 14.6189 91.0596 14.2676C91.0476 14.0924 91.0381 13.9635 91.0322 13.8809C91.0293 13.8398 91.0277 13.8094 91.0264 13.791C91.0257 13.7823 91.0247 13.776 91.0244 13.7725C91.0243 13.7713 91.0244 13.7701 91.0244 13.7695C91.026 13.7697 91.0861 13.765 93.4492 13.5898H91V0H109V12.7861Z" fill="#F5A86C" fill-opacity="0.15"/>
<path d="M149 10.3486H148.988C148.985 10.4574 148.979 10.6159 148.972 10.8223C148.957 11.2556 148.935 11.902 148.906 12.752C148.849 14.4523 148.767 16.9681 148.662 20.2246C148.453 26.7382 148.159 36.2173 147.819 48.0693C147.139 71.7743 146.275 104.97 145.541 142.93C144.073 218.885 143.127 313.777 145.197 389.858C146.01 419.7 146.956 440.362 147.696 453.535C148.067 460.121 148.387 464.834 148.612 467.885C148.724 469.41 148.812 470.521 148.872 471.241C148.902 471.601 148.926 471.864 148.941 472.033C148.948 472.117 148.954 472.178 148.957 472.216C148.959 472.235 148.959 472.248 148.96 472.256L148.961 472.262C148.96 472.261 148.901 472.267 145.269 472.607H149V480H131V473.504C130.984 473.312 130.961 473.057 130.935 472.736C130.87 471.956 130.777 470.789 130.66 469.208C130.427 466.046 130.102 461.229 129.726 454.546C128.974 441.179 128.021 420.342 127.204 390.348C125.122 313.833 126.076 218.601 127.545 142.582C128.28 104.555 129.145 71.3007 129.826 47.5527C130.167 35.6786 130.461 26.1795 130.671 19.6475C130.776 16.3817 130.86 13.8573 130.917 12.1484C130.946 11.2942 130.968 10.6435 130.983 10.2061L131 9.71094V0H149V10.3486Z" fill="#F5A86C" fill-opacity="0.15"/>
<path d="M178.413 0.0666504C180.525 -0.311434 182.595 0.0817055 184.338 1.04224H189V8.26099C189.051 8.62381 189.114 9.09896 189.185 9.70435C189.354 11.1491 189.577 13.3534 189.818 16.5647C190.302 22.9834 190.87 33.4952 191.247 50.1125C192.002 83.3433 191.998 141.168 188.995 239.809C185.998 338.263 186.002 397.177 186.747 431.41C187.12 448.524 187.678 459.439 188.135 466.021C188.363 469.309 188.565 471.505 188.705 472.844C188.775 473.512 188.829 473.965 188.862 474.231C188.879 474.363 188.891 474.448 188.897 474.49L188.898 474.496C188.892 474.495 188.752 474.514 185.092 475.073H189V480H171V476.451C170.949 476.048 170.883 475.478 170.803 474.716C170.638 473.14 170.418 470.732 170.178 467.266C169.697 460.336 169.129 449.128 168.752 431.802C167.998 397.154 168.001 337.908 171.004 239.262C174.001 140.801 173.997 83.32 173.252 50.5217C172.88 34.1253 172.323 23.9405 171.869 17.9172C171.643 14.9083 171.442 12.9545 171.307 11.7971C171.239 11.2199 171.188 10.8449 171.158 10.6399C171.144 10.5382 171.134 10.4785 171.131 10.4583V10.4573C171.132 10.4618 171.133 10.4689 171.135 10.4778C171.136 10.4823 171.137 10.4878 171.138 10.4934C171.045 9.96691 171.002 9.44294 171.001 8.92603H171V1.04224H175.659C176.496 0.581417 177.42 0.24446 178.413 0.0666504Z" fill="#F5A86C" fill-opacity="0.15"/>
<path d="M229 7.36914C229 187.309 233.498 291.163 229 469.299V480H211V468.7H211.01C215.483 291.38 211.025 188.567 211.001 8.84375H211V0H229V7.36914Z" fill="#F5A86C" fill-opacity="0.15"/>
<path d="M269 17.0381H268.989C265.627 115.712 265.626 229.878 266.468 319.453C266.89 364.255 267.522 402.88 268.048 430.303C268.312 444.014 268.549 454.923 268.72 462.403C268.806 466.143 268.875 469.025 268.923 470.972C268.946 471.945 268.965 472.684 268.977 473.18C268.977 473.181 268.977 473.183 268.977 473.185H269V480H251V474.271C250.999 474.25 250.998 474.227 250.998 474.2C250.994 474.073 250.989 473.884 250.983 473.634C250.97 473.134 250.952 472.39 250.928 471.413C250.88 469.457 250.811 466.565 250.725 462.815C250.554 455.316 250.316 444.383 250.052 430.648C249.525 403.179 248.891 364.494 248.468 319.622C247.625 229.949 247.623 115.464 251 16.3936V0H269V17.0381Z" fill="#F5A86C" fill-opacity="0.15"/>
<path d="M309 12.7861C309.005 12.8596 309.011 12.9451 309.018 13.042C309.044 13.4283 309.082 14.0024 309.13 14.7676C309.226 16.2984 309.361 18.5985 309.521 21.71C309.84 27.934 310.26 37.4074 310.665 50.4736C311.475 76.606 312.227 117.116 312 174.758C311.752 237.791 311.002 311.348 310.313 369.135C309.969 398.031 309.641 422.99 309.398 440.724C309.277 449.59 309.177 456.652 309.107 461.497C309.073 463.919 309.046 465.788 309.027 467.051C309.018 467.682 309.011 468.162 309.006 468.484C309.003 468.645 309.002 468.767 309.001 468.849C309.001 468.866 309 468.881 309 468.895V480H291V467.866H291.013C291.017 467.579 291.023 467.218 291.029 466.787C291.048 465.526 291.075 463.659 291.109 461.238C291.179 456.397 291.279 449.339 291.4 440.477C291.643 422.751 291.971 397.804 292.315 368.921C293.003 311.149 293.753 237.648 294 174.687C294.226 117.233 293.477 76.9337 292.674 51.0312C292.272 38.0805 291.857 28.7294 291.544 22.6338C291.387 19.5865 291.256 17.3525 291.165 15.8896C291.119 15.1584 291.084 14.6189 291.06 14.2676C291.048 14.0924 291.038 13.9635 291.032 13.8809C291.029 13.8398 291.028 13.8094 291.026 13.791C291.026 13.7823 291.025 13.776 291.024 13.7725C291.024 13.7713 291.024 13.7701 291.024 13.7695C291.026 13.7697 291.086 13.765 293.449 13.5898H291V0H309V12.7861Z" fill="#F5A86C" fill-opacity="0.15"/>
<path d="M349 10.3486H348.988C348.985 10.4574 348.979 10.6159 348.972 10.8223C348.957 11.2556 348.935 11.902 348.906 12.752C348.849 14.4523 348.767 16.9681 348.662 20.2246C348.453 26.7382 348.159 36.2173 347.819 48.0693C347.139 71.7743 346.275 104.97 345.541 142.93C344.073 218.885 343.127 313.777 345.197 389.858C346.01 419.7 346.956 440.362 347.696 453.535C348.067 460.121 348.387 464.834 348.612 467.885C348.724 469.41 348.812 470.521 348.872 471.241C348.902 471.601 348.926 471.864 348.941 472.033C348.948 472.117 348.954 472.178 348.957 472.216C348.959 472.235 348.959 472.248 348.96 472.256L348.961 472.262C348.96 472.261 348.901 472.267 345.269 472.607H349V480H331V473.504C330.984 473.312 330.961 473.057 330.935 472.736C330.87 471.956 330.777 470.789 330.66 469.208C330.427 466.046 330.102 461.229 329.726 454.546C328.974 441.179 328.021 420.342 327.204 390.348C325.122 313.833 326.076 218.601 327.545 142.582C328.28 104.555 329.145 71.3007 329.826 47.5527C330.167 35.6786 330.461 26.1795 330.671 19.6475C330.776 16.3817 330.86 13.8573 330.917 12.1484C330.946 11.2942 330.968 10.6435 330.983 10.2061L331 9.71094V0H349V10.3486Z" fill="#F5A86C" fill-opacity="0.15"/>
<path d="M429 7.36914C429 187.309 433.498 291.163 429 469.299V480H411V468.7H411.01C415.483 291.38 411.025 188.567 411.001 8.84375H411V0H429V7.36914Z" fill="#F5A86C" fill-opacity="0.15"/>
<path d="M469 17.0381H468.989C465.627 115.712 465.626 229.878 466.468 319.453C466.89 364.255 467.522 402.88 468.048 430.303C468.312 444.014 468.549 454.923 468.72 462.403C468.806 466.143 468.875 469.025 468.922 470.972C468.946 471.945 468.965 472.684 468.977 473.18C468.977 473.181 468.977 473.183 468.977 473.185H469V480H451V474.271C450.999 474.25 450.998 474.227 450.998 474.2C450.994 474.073 450.989 473.884 450.983 473.634C450.97 473.134 450.952 472.39 450.928 471.413C450.88 469.457 450.811 466.565 450.725 462.815C450.554 455.316 450.316 444.383 450.052 430.648C449.525 403.179 448.891 364.494 448.468 319.622C447.625 229.949 447.623 115.464 451 16.3936V0H469V17.0381Z" fill="#F5A86C" fill-opacity="0.15"/>
<path d="M378.413 0.0170288C380.524 -0.361 382.595 0.0312107 384.338 0.991638H389V8.21136C389.051 8.57418 389.114 9.04935 389.185 9.65472C389.354 11.0997 389.576 13.3042 389.818 16.5161C390.302 22.9355 390.87 33.4484 391.247 50.0678C392.002 83.3021 391.998 141.133 388.995 239.784C385.998 338.249 386.002 397.168 386.747 431.406C387.12 448.521 387.678 459.437 388.135 466.019C388.363 469.308 388.565 471.505 388.705 472.844C388.775 473.512 388.829 473.965 388.862 474.23C388.879 474.362 388.891 474.449 388.897 474.491L388.898 474.497C388.897 474.495 388.897 474.493 387.785 474.662L385.099 475.072H389V479.999H371V476.452C370.949 476.048 370.883 475.478 370.803 474.715C370.638 473.139 370.418 470.732 370.178 467.265C369.697 460.334 369.129 449.126 368.752 431.797C367.998 397.146 368.001 337.894 371.004 239.237C374.001 140.766 373.997 83.279 373.252 50.477C372.88 34.0786 372.323 23.8926 371.869 17.8686C371.643 14.8592 371.442 12.9051 371.307 11.7475C371.239 11.1703 371.188 10.7954 371.158 10.5903C371.144 10.4887 371.134 10.4292 371.131 10.4086V10.4077C371.132 10.4123 371.133 10.4192 371.135 10.4282C371.136 10.4327 371.136 10.4381 371.137 10.4438L371.139 10.4526C371.045 9.92318 371.002 9.39615 371.001 8.8764H371V0.991638H375.66C376.497 0.531105 377.421 0.194773 378.413 0.0170288Z" fill="#F5A86C" fill-opacity="0.15"/>
</g>
<defs>
<clipPath id="clip0_18_7134">
<rect width="480" height="480" fill="white"/>
</clipPath>
</defs>
</svg>
