<svg width="480" height="480" viewBox="0 0 480 480" fill="none" xmlns="http://www.w3.org/2000/svg">
<g clip-path="url(#clip0_18_7134)">
<g filter="url(#filter0_g_18_7134)">
<path d="M29 5C29 188.139 33.4979 293.815 29 475.102V486H11V474.5H11.0098C15.4831 294.04 11.0253 189.39 11.001 6.5H11V-2.5H29V5Z" fill="#F5A86C" fill-opacity="0.15"/>
</g>
<g filter="url(#filter1_g_18_7134)">
<path d="M68.9999 5.5H68.9882C65.6262 106.853 65.6259 224.11 66.4687 316.109C66.8902 362.126 67.5218 401.799 68.0487 429.966C68.3122 444.049 68.5494 455.254 68.7206 462.938C68.8062 466.779 68.8751 469.74 68.9228 471.739C68.9465 472.734 68.9659 473.491 68.9784 474H68.9999V481H50.9999V475.104C50.9993 475.082 50.9986 475.057 50.998 475.03C50.9947 474.9 50.9896 474.706 50.9833 474.449C50.9707 473.936 50.9526 473.172 50.9286 472.168C50.8807 470.16 50.8113 467.19 50.7255 463.339C50.5539 455.636 50.3165 444.409 50.0526 430.303C49.5249 402.091 48.8908 362.359 48.4687 316.273C47.6249 224.174 47.6237 106.597 50.9999 4.85352V-12H68.9999V5.5Z" fill="#F5A86C" fill-opacity="0.15"/>
</g>
<g filter="url(#filter2_g_18_7134)">
<path d="M109 5.19531C109.005 5.27412 109.012 5.36657 109.019 5.47266C109.045 5.86958 109.083 6.45887 109.131 7.24609C109.226 8.82113 109.362 11.1886 109.521 14.3926C109.841 20.8008 110.261 30.5569 110.666 44.0146C111.476 70.9296 112.227 112.657 112 172.034C111.752 236.97 111.002 312.747 110.313 372.279C109.969 402.048 109.641 427.76 109.398 446.029C109.277 455.164 109.177 462.439 109.107 467.43C109.073 469.925 109.046 471.85 109.027 473.151C109.018 473.802 109.011 474.296 109.006 474.628C109.003 474.794 109.002 474.92 109.001 475.004C109 475.046 109 475.078 109 475.099V486.5H91V474H91.0137C91.018 473.705 91.023 473.336 91.0293 472.896C91.0478 471.596 91.0747 469.673 91.1094 467.179C91.1788 462.191 91.2791 454.921 91.4004 445.79C91.6429 427.529 91.9705 401.828 92.3145 372.071C93.0025 312.554 93.7525 236.831 94 171.966C94.2258 112.771 93.477 71.2475 92.6738 44.5557C92.2723 31.2103 91.8574 21.5735 91.5439 15.29C91.3872 12.1485 91.2556 9.84504 91.1641 8.33594C91.1183 7.58139 91.0826 7.02512 91.0586 6.66211C91.0466 6.48063 91.0372 6.34741 91.0312 6.26172C91.0283 6.21899 91.0258 6.18811 91.0244 6.16895C91.0237 6.15937 91.0237 6.15212 91.0234 6.14844C91.0233 6.14685 91.0235 6.14585 91.0234 6.14551C91.0283 6.14543 91.1246 6.13824 93.0469 6H91V-8H109V5.19531Z" fill="#F5A86C" fill-opacity="0.15"/>
</g>
<g filter="url(#filter3_g_18_7134)">
<path d="M149 5.5H148.988C148.984 5.60995 148.979 5.76726 148.972 5.9707C148.958 6.41044 148.936 7.06705 148.907 7.92969C148.85 9.65498 148.766 12.2075 148.662 15.5117C148.453 22.1206 148.158 31.7376 147.818 43.7627C147.138 67.814 146.275 101.495 145.541 140.009C144.073 217.073 143.127 313.353 145.197 390.551C146.009 420.829 146.956 441.795 147.697 455.163C148.068 461.847 148.386 466.63 148.611 469.728C148.724 471.276 148.813 472.403 148.873 473.135C148.903 473.501 148.926 473.768 148.941 473.939C148.949 474.025 148.954 474.087 148.958 474.126C148.96 474.145 148.96 474.158 148.961 474.166C148.961 474.169 148.962 474.172 148.962 474.173C148.956 474.173 148.814 474.186 145.417 474.5H149V482H131V475.397C130.983 475.202 130.961 474.94 130.933 474.608C130.868 473.818 130.775 472.634 130.659 471.031C130.426 467.825 130.1 462.939 129.724 456.159C128.973 442.6 128.02 421.462 127.204 391.033C125.122 313.409 126.075 216.792 127.545 139.666C128.28 101.085 129.145 67.3475 129.826 43.2539C130.167 31.2067 130.461 21.5694 130.671 14.9424C130.776 11.6288 130.859 9.06763 130.917 7.33398C130.945 6.4672 130.967 5.80701 130.982 5.36328C130.99 5.1416 130.995 4.97388 130.999 4.86133C130.999 4.85253 131 4.84406 131 4.83594V-5H149V5.5Z" fill="#F5A86C" fill-opacity="0.15"/>
</g>
<g filter="url(#filter4_g_18_7134)">
<path d="M178.436 -2.86328C180.453 -3.21923 182.431 -2.87194 184.12 -2H189V5.33984C189.051 5.70865 189.115 6.19583 189.187 6.82031C189.355 8.28225 189.577 10.5151 189.818 13.7705C190.302 20.2779 190.87 30.9399 191.247 47.7988C192.002 81.5119 191.999 140.181 188.996 240.27C185.999 340.175 186.003 399.958 186.748 434.701C187.121 452.07 187.678 463.149 188.135 469.833C188.363 473.173 188.566 475.405 188.706 476.767C188.776 477.447 188.831 477.908 188.864 478.179C188.881 478.314 188.894 478.402 188.9 478.445C188.9 478.448 188.9 478.451 188.901 478.454C188.895 478.452 188.76 478.471 185.244 479H189V484H171V480.383C170.949 479.975 170.881 479.393 170.801 478.611C170.637 477.016 170.417 474.576 170.177 471.062C169.696 464.035 169.129 452.666 168.752 435.088C167.998 399.936 168.001 339.825 171.004 239.73C174.001 139.819 173.997 81.4881 173.252 48.2012C172.88 31.5607 172.323 21.2221 171.868 15.1045C171.641 12.048 171.441 10.0614 171.305 8.88281C171.237 8.29465 171.186 7.9117 171.156 7.70117L171.131 7.53027C171.132 7.53474 171.133 7.5403 171.134 7.5459C171.043 7.02659 171.003 6.50984 171.002 6H171V-2H175.871C176.658 -2.40572 177.518 -2.70134 178.436 -2.86328Z" fill="#F5A86C" fill-opacity="0.15"/>
</g>
<g filter="url(#filter5_g_18_7134)">
<path d="M229 5C229 188.139 233.498 293.815 229 475.102V486H211V474.5H211.01C215.483 294.04 211.025 189.39 211.001 6.5H211V-2.5H229V5Z" fill="#F5A86C" fill-opacity="0.15"/>
</g>
<g filter="url(#filter6_g_18_7134)">
<path d="M269 5.5H268.988C265.626 106.853 265.626 224.11 266.469 316.109C266.89 362.126 267.522 401.799 268.049 429.966C268.312 444.049 268.549 455.254 268.721 462.938C268.806 466.779 268.875 469.74 268.923 471.739C268.946 472.734 268.966 473.491 268.978 474H269V481H251V475.104C250.999 475.082 250.999 475.057 250.998 475.03C250.995 474.9 250.99 474.706 250.983 474.449C250.971 473.936 250.953 473.172 250.929 472.168C250.881 470.16 250.811 467.19 250.725 463.339C250.554 455.636 250.317 444.409 250.053 430.303C249.525 402.091 248.891 362.359 248.469 316.273C247.625 224.174 247.624 106.597 251 4.85352V-12H269V5.5Z" fill="#F5A86C" fill-opacity="0.15"/>
</g>
<g filter="url(#filter7_g_18_7134)">
<path d="M309 5.19531C309.005 5.27412 309.012 5.36657 309.019 5.47266C309.045 5.86958 309.083 6.45887 309.131 7.24609C309.226 8.82113 309.362 11.1886 309.521 14.3926C309.841 20.8008 310.261 30.5569 310.666 44.0146C311.476 70.9296 312.227 112.657 312 172.034C311.752 236.97 311.002 312.747 310.313 372.279C309.969 402.048 309.641 427.76 309.398 446.029C309.277 455.164 309.177 462.439 309.107 467.43C309.073 469.925 309.046 471.85 309.027 473.151C309.018 473.802 309.011 474.296 309.006 474.628C309.003 474.794 309.002 474.92 309.001 475.004C309 475.046 309 475.078 309 475.099V486.5H291V474H291.014C291.018 473.705 291.023 473.336 291.029 472.896C291.048 471.596 291.075 469.673 291.109 467.179C291.179 462.191 291.279 454.921 291.4 445.79C291.643 427.529 291.97 401.828 292.314 372.071C293.002 312.554 293.753 236.831 294 171.966C294.226 112.771 293.477 71.2475 292.674 44.5557C292.272 31.2103 291.857 21.5735 291.544 15.29C291.387 12.1485 291.256 9.84504 291.164 8.33594C291.118 7.58139 291.083 7.02512 291.059 6.66211C291.047 6.48063 291.037 6.34741 291.031 6.26172C291.028 6.21899 291.026 6.18811 291.024 6.16895C291.024 6.15937 291.024 6.15212 291.023 6.14844C291.023 6.14685 291.023 6.14585 291.023 6.14551C291.028 6.14543 291.125 6.13824 293.047 6H291V-8H309V5.19531Z" fill="#F5A86C" fill-opacity="0.15"/>
</g>
<g filter="url(#filter8_g_18_7134)">
<path d="M349 5.5H348.988C348.984 5.60995 348.979 5.76726 348.972 5.9707C348.958 6.41044 348.936 7.06705 348.907 7.92969C348.85 9.65498 348.766 12.2075 348.662 15.5117C348.453 22.1206 348.158 31.7376 347.818 43.7627C347.138 67.814 346.275 101.495 345.541 140.009C344.072 217.073 343.127 313.353 345.197 390.551C346.009 420.829 346.956 441.795 347.697 455.163C348.068 461.847 348.386 466.63 348.611 469.728C348.724 471.276 348.813 472.403 348.873 473.135C348.903 473.501 348.926 473.768 348.941 473.939C348.949 474.025 348.954 474.087 348.958 474.126C348.959 474.145 348.96 474.158 348.961 474.166C348.961 474.169 348.962 474.172 348.962 474.173C348.956 474.173 348.814 474.186 345.417 474.5H349V482H331V475.397C330.983 475.202 330.961 474.94 330.933 474.608C330.868 473.818 330.775 472.634 330.659 471.031C330.426 467.825 330.1 462.939 329.724 456.159C328.973 442.6 328.02 421.462 327.204 391.033C325.122 313.409 326.075 216.792 327.545 139.666C328.28 101.085 329.145 67.3475 329.826 43.2539C330.167 31.2067 330.461 21.5694 330.671 14.9424C330.775 11.6288 330.859 9.06763 330.917 7.33398C330.945 6.4672 330.967 5.80701 330.982 5.36328C330.99 5.1416 330.995 4.97388 330.999 4.86133C330.999 4.85253 330.999 4.84406 331 4.83594V-5H349V5.5Z" fill="#F5A86C" fill-opacity="0.15"/>
</g>
<g filter="url(#filter9_g_18_7134)">
<path d="M429 5C429 188.139 433.498 293.815 429 475.102V486H411V474.5H411.01C415.483 294.04 411.025 189.39 411.001 6.5H411V-2.5H429V5Z" fill="#F5A86C" fill-opacity="0.15"/>
</g>
<g filter="url(#filter10_g_18_7134)">
<path d="M469 5.5H468.988C465.626 106.853 465.626 224.11 466.469 316.109C466.89 362.126 467.522 401.799 468.049 429.966C468.312 444.049 468.549 455.254 468.721 462.938C468.806 466.779 468.875 469.74 468.923 471.739C468.946 472.734 468.966 473.491 468.978 474H469V481H451V475.104C450.999 475.082 450.999 475.057 450.998 475.03C450.995 474.9 450.99 474.706 450.983 474.449C450.971 473.936 450.953 473.172 450.929 472.168C450.881 470.16 450.811 467.19 450.725 463.339C450.554 455.636 450.317 444.409 450.053 430.303C449.525 402.091 448.891 362.359 448.469 316.273C447.625 224.174 447.624 106.597 451 4.85352V-12H469V5.5Z" fill="#F5A86C" fill-opacity="0.15"/>
</g>
<g filter="url(#filter11_g_18_7134)">
<path d="M378.436 -2.86328C380.453 -3.21923 382.431 -2.87194 384.12 -2H389V5.33984C389.051 5.70865 389.115 6.19583 389.187 6.82031C389.355 8.28225 389.577 10.5151 389.818 13.7705C390.302 20.2779 390.87 30.9399 391.247 47.7988C392.002 81.5119 391.999 140.181 388.996 240.27C385.999 340.175 386.003 399.958 386.748 434.701C387.121 452.07 387.678 463.149 388.135 469.833C388.363 473.173 388.566 475.405 388.706 476.767C388.776 477.447 388.831 477.908 388.864 478.179C388.881 478.314 388.894 478.402 388.9 478.445C388.9 478.448 388.9 478.451 388.901 478.454C388.895 478.452 388.76 478.471 385.244 479H389V484H371V480.383C370.949 479.975 370.881 479.393 370.801 478.611C370.637 477.016 370.417 474.576 370.177 471.062C369.696 464.035 369.129 452.666 368.752 435.088C367.998 399.936 368.001 339.825 371.004 239.73C374.001 139.819 373.997 81.4881 373.252 48.2012C372.88 31.5607 372.323 21.2221 371.868 15.1045C371.641 12.048 371.441 10.0614 371.305 8.88281C371.237 8.29465 371.186 7.9117 371.156 7.70117L371.131 7.53027C371.132 7.53474 371.133 7.5403 371.134 7.5459C371.043 7.02659 371.003 6.50984 371.002 6H371V-2H375.871C376.658 -2.40572 377.518 -2.70134 378.436 -2.86328Z" fill="#F5A86C" fill-opacity="0.15"/>
</g>
</g>
<defs>
<filter id="filter0_g_18_7134" x="9.5" y="-4" width="22.9991" height="491.5" filterUnits="userSpaceOnUse" color-interpolation-filters="sRGB">
<feFlood flood-opacity="0" result="BackgroundImageFix"/>
<feBlend mode="normal" in="SourceGraphic" in2="BackgroundImageFix" result="shape"/>
<feTurbulence type="fractalNoise" baseFrequency="0.25 0.25" numOctaves="3" seed="7853" />
<feDisplacementMap in="shape" scale="3" xChannelSelector="R" yChannelSelector="G" result="displacedImage" width="100%" height="100%" />
<feMerge result="effect1_texture_18_7134">
<feMergeNode in="displacedImage"/>
</feMerge>
</filter>
<filter id="filter1_g_18_7134" x="46.4996" y="-13.5" width="24.0003" height="496" filterUnits="userSpaceOnUse" color-interpolation-filters="sRGB">
<feFlood flood-opacity="0" result="BackgroundImageFix"/>
<feBlend mode="normal" in="SourceGraphic" in2="BackgroundImageFix" result="shape"/>
<feTurbulence type="fractalNoise" baseFrequency="0.25 0.25" numOctaves="3" seed="7853" />
<feDisplacementMap in="shape" scale="3" xChannelSelector="R" yChannelSelector="G" result="displacedImage" width="100%" height="100%" />
<feMerge result="effect1_texture_18_7134">
<feMergeNode in="displacedImage"/>
</feMerge>
</filter>
<filter id="filter2_g_18_7134" x="89.5" y="-9.5" width="24.0409" height="497.5" filterUnits="userSpaceOnUse" color-interpolation-filters="sRGB">
<feFlood flood-opacity="0" result="BackgroundImageFix"/>
<feBlend mode="normal" in="SourceGraphic" in2="BackgroundImageFix" result="shape"/>
<feTurbulence type="fractalNoise" baseFrequency="0.25 0.25" numOctaves="3" seed="7853" />
<feDisplacementMap in="shape" scale="3" xChannelSelector="R" yChannelSelector="G" result="displacedImage" width="100%" height="100%" />
<feMerge result="effect1_texture_18_7134">
<feMergeNode in="displacedImage"/>
</feMerge>
</filter>
<filter id="filter3_g_18_7134" x="124.5" y="-6.5" width="25.9998" height="490" filterUnits="userSpaceOnUse" color-interpolation-filters="sRGB">
<feFlood flood-opacity="0" result="BackgroundImageFix"/>
<feBlend mode="normal" in="SourceGraphic" in2="BackgroundImageFix" result="shape"/>
<feTurbulence type="fractalNoise" baseFrequency="0.25 0.25" numOctaves="3" seed="7853" />
<feDisplacementMap in="shape" scale="3" xChannelSelector="R" yChannelSelector="G" result="displacedImage" width="100%" height="100%" />
<feMerge result="effect1_texture_18_7134">
<feMergeNode in="displacedImage"/>
</feMerge>
</filter>
<filter id="filter4_g_18_7134" x="166.833" y="-4.50146" width="26.333" height="490.001" filterUnits="userSpaceOnUse" color-interpolation-filters="sRGB">
<feFlood flood-opacity="0" result="BackgroundImageFix"/>
<feBlend mode="normal" in="SourceGraphic" in2="BackgroundImageFix" result="shape"/>
<feTurbulence type="fractalNoise" baseFrequency="0.25 0.25" numOctaves="3" seed="7853" />
<feDisplacementMap in="shape" scale="3" xChannelSelector="R" yChannelSelector="G" result="displacedImage" width="100%" height="100%" />
<feMerge result="effect1_texture_18_7134">
<feMergeNode in="displacedImage"/>
</feMerge>
</filter>
<filter id="filter5_g_18_7134" x="209.5" y="-4" width="22.9991" height="491.5" filterUnits="userSpaceOnUse" color-interpolation-filters="sRGB">
<feFlood flood-opacity="0" result="BackgroundImageFix"/>
<feBlend mode="normal" in="SourceGraphic" in2="BackgroundImageFix" result="shape"/>
<feTurbulence type="fractalNoise" baseFrequency="0.25 0.25" numOctaves="3" seed="7853" />
<feDisplacementMap in="shape" scale="3" xChannelSelector="R" yChannelSelector="G" result="displacedImage" width="100%" height="100%" />
<feMerge result="effect1_texture_18_7134">
<feMergeNode in="displacedImage"/>
</feMerge>
</filter>
<filter id="filter6_g_18_7134" x="246.5" y="-13.5" width="24.0003" height="496" filterUnits="userSpaceOnUse" color-interpolation-filters="sRGB">
<feFlood flood-opacity="0" result="BackgroundImageFix"/>
<feBlend mode="normal" in="SourceGraphic" in2="BackgroundImageFix" result="shape"/>
<feTurbulence type="fractalNoise" baseFrequency="0.25 0.25" numOctaves="3" seed="7853" />
<feDisplacementMap in="shape" scale="3" xChannelSelector="R" yChannelSelector="G" result="displacedImage" width="100%" height="100%" />
<feMerge result="effect1_texture_18_7134">
<feMergeNode in="displacedImage"/>
</feMerge>
</filter>
<filter id="filter7_g_18_7134" x="289.5" y="-9.5" width="24.0409" height="497.5" filterUnits="userSpaceOnUse" color-interpolation-filters="sRGB">
<feFlood flood-opacity="0" result="BackgroundImageFix"/>
<feBlend mode="normal" in="SourceGraphic" in2="BackgroundImageFix" result="shape"/>
<feTurbulence type="fractalNoise" baseFrequency="0.25 0.25" numOctaves="3" seed="7853" />
<feDisplacementMap in="shape" scale="3" xChannelSelector="R" yChannelSelector="G" result="displacedImage" width="100%" height="100%" />
<feMerge result="effect1_texture_18_7134">
<feMergeNode in="displacedImage"/>
</feMerge>
</filter>
<filter id="filter8_g_18_7134" x="324.5" y="-6.5" width="25.9998" height="490" filterUnits="userSpaceOnUse" color-interpolation-filters="sRGB">
<feFlood flood-opacity="0" result="BackgroundImageFix"/>
<feBlend mode="normal" in="SourceGraphic" in2="BackgroundImageFix" result="shape"/>
<feTurbulence type="fractalNoise" baseFrequency="0.25 0.25" numOctaves="3" seed="7853" />
<feDisplacementMap in="shape" scale="3" xChannelSelector="R" yChannelSelector="G" result="displacedImage" width="100%" height="100%" />
<feMerge result="effect1_texture_18_7134">
<feMergeNode in="displacedImage"/>
</feMerge>
</filter>
<filter id="filter9_g_18_7134" x="409.5" y="-4" width="22.9991" height="491.5" filterUnits="userSpaceOnUse" color-interpolation-filters="sRGB">
<feFlood flood-opacity="0" result="BackgroundImageFix"/>
<feBlend mode="normal" in="SourceGraphic" in2="BackgroundImageFix" result="shape"/>
<feTurbulence type="fractalNoise" baseFrequency="0.25 0.25" numOctaves="3" seed="7853" />
<feDisplacementMap in="shape" scale="3" xChannelSelector="R" yChannelSelector="G" result="displacedImage" width="100%" height="100%" />
<feMerge result="effect1_texture_18_7134">
<feMergeNode in="displacedImage"/>
</feMerge>
</filter>
<filter id="filter10_g_18_7134" x="446.5" y="-13.5" width="24.0003" height="496" filterUnits="userSpaceOnUse" color-interpolation-filters="sRGB">
<feFlood flood-opacity="0" result="BackgroundImageFix"/>
<feBlend mode="normal" in="SourceGraphic" in2="BackgroundImageFix" result="shape"/>
<feTurbulence type="fractalNoise" baseFrequency="0.25 0.25" numOctaves="3" seed="7853" />
<feDisplacementMap in="shape" scale="3" xChannelSelector="R" yChannelSelector="G" result="displacedImage" width="100%" height="100%" />
<feMerge result="effect1_texture_18_7134">
<feMergeNode in="displacedImage"/>
</feMerge>
</filter>
<filter id="filter11_g_18_7134" x="366.833" y="-4.50146" width="26.333" height="490.001" filterUnits="userSpaceOnUse" color-interpolation-filters="sRGB">
<feFlood flood-opacity="0" result="BackgroundImageFix"/>
<feBlend mode="normal" in="SourceGraphic" in2="BackgroundImageFix" result="shape"/>
<feTurbulence type="fractalNoise" baseFrequency="0.25 0.25" numOctaves="3" seed="7853" />
<feDisplacementMap in="shape" scale="3" xChannelSelector="R" yChannelSelector="G" result="displacedImage" width="100%" height="100%" />
<feMerge result="effect1_texture_18_7134">
<feMergeNode in="displacedImage"/>
</feMerge>
</filter>
<clipPath id="clip0_18_7134">
<rect width="480" height="480" fill="white"/>
</clipPath>
</defs>
</svg>
