<svg width="480" height="480" viewBox="0 0 480 480" fill="none" xmlns="http://www.w3.org/2000/svg">
<g clip-path="url(#clip0_18_140)">
<path d="M25 7.36914C25 187.488 29.4983 291.131 25 469.237V480H15V468.7H15.0107C19.4815 291.388 15.0253 188.369 15.001 8.84375H15V0H25V7.36914Z" fill="#F7A6B3" fill-opacity="0.5"/>
<path d="M65 17.0381H64.9863C61.6258 115.767 61.6261 229.936 62.4688 319.49C62.8904 364.308 63.5227 402.947 64.0498 430.38C64.3133 444.096 64.5504 455.011 64.7217 462.495C64.8073 466.237 64.8771 469.122 64.9248 471.07C64.9472 471.983 64.9651 472.691 64.9775 473.185H65V480H55V474.24C54.9992 474.208 54.9987 474.161 54.9971 474.098C54.9938 473.971 54.9887 473.783 54.9824 473.533C54.9698 473.034 54.9517 472.291 54.9277 471.314C54.8799 469.361 54.8104 466.471 54.7246 462.724C54.5531 455.228 54.3156 444.301 54.0518 430.571C53.5242 403.112 52.8908 364.44 52.4688 319.584C51.625 229.912 51.6243 115.467 55 16.4697V0H65V17.0381Z" fill="#F7A6B3" fill-opacity="0.5"/>
<path d="M105 12.9277C105.007 13.0219 105.016 13.1509 105.027 13.3145C105.053 13.693 105.09 14.259 105.138 15.0166C105.232 16.5323 105.366 18.8177 105.525 21.915C105.844 28.1105 106.263 37.5571 106.667 50.5977C107.476 76.679 108.226 117.142 108 174.742C107.752 237.76 107.002 311.304 106.313 369.088C105.969 397.981 105.641 422.937 105.398 440.669C105.277 449.535 105.178 456.595 105.108 461.439C105.074 463.861 105.046 465.73 105.027 466.992C105.018 467.623 105.012 468.103 105.007 468.425C105.004 468.585 105.002 468.708 105.001 468.789C105.001 468.807 105 468.824 105 468.838V480H95V467.866H95.0137C95.0176 467.589 95.0224 467.248 95.0283 466.846C95.0468 465.584 95.0747 463.717 95.1094 461.296C95.1788 456.454 95.2782 449.395 95.3994 440.531C95.6419 422.804 95.9704 397.854 96.3145 368.969C97.0025 311.194 97.7525 237.68 98 174.702C98.226 117.207 97.4764 76.8607 96.6719 50.9072C96.2696 37.931 95.8538 28.5528 95.5391 22.4287C95.3817 19.367 95.2496 17.1177 95.1572 15.6396C95.1111 14.9011 95.0743 14.3542 95.0498 13.9951C95.0376 13.8161 95.0286 13.6832 95.0225 13.5967C95.0223 13.5945 95.0226 13.592 95.0225 13.5898H95V0H105V12.9277Z" fill="#F7A6B3" fill-opacity="0.5"/>
<path d="M145 10.3486H144.987C144.983 10.4411 144.979 10.5535 144.975 10.6855C144.96 11.1198 144.938 11.7672 144.909 12.6182C144.852 14.3204 144.769 16.838 144.664 20.0967C144.455 26.6143 144.161 36.0973 143.821 47.9541C143.14 71.6686 142.276 104.878 141.542 142.853C140.074 218.822 139.126 313.789 141.199 389.967C142.012 419.842 142.96 440.544 143.703 453.76C144.075 460.368 144.396 465.104 144.622 468.18C144.736 469.717 144.826 470.84 144.887 471.573C144.918 471.94 144.941 472.21 144.956 472.386C144.964 472.473 144.969 472.538 144.973 472.579C144.974 472.59 144.975 472.6 144.976 472.607H145V480H135V473.321C134.999 473.304 134.997 473.286 134.995 473.267C134.978 473.074 134.953 472.787 134.921 472.404C134.857 471.638 134.764 470.483 134.649 468.914C134.417 465.777 134.094 460.983 133.719 454.321C132.97 440.998 132.018 420.199 131.202 390.239C129.123 313.821 130.075 218.664 131.544 142.659C132.279 104.647 133.144 71.4063 133.824 47.668C134.165 35.7989 134.46 26.3043 134.669 19.7764C134.774 16.5125 134.857 13.9892 134.914 12.2822C134.943 11.429 134.966 10.7792 134.981 10.3428C134.988 10.125 134.993 9.96013 134.997 9.84961C134.998 9.82103 134.999 9.79582 135 9.77441V0H145V10.3486Z" fill="#F7A6B3" fill-opacity="0.5"/>
<path d="M185 7.5166C185.005 7.54706 185.01 7.57892 185.015 7.6123C185.064 7.95545 185.131 8.45753 185.212 9.14941C185.374 10.533 185.591 12.6863 185.829 15.8594C186.306 22.2036 186.872 32.6651 187.248 49.2695C188.001 82.4758 187.999 140.349 184.997 239.164C181.999 337.876 182.001 396.992 182.748 431.393C183.122 448.591 183.682 459.596 184.144 466.27C184.375 469.605 184.581 471.853 184.727 473.248C184.799 473.945 184.857 474.427 184.895 474.725C184.913 474.873 184.926 474.975 184.935 475.034C184.936 475.045 184.938 475.054 184.939 475.062H185V480H175V476.18C174.992 476.119 174.983 476.052 174.974 475.979C174.926 475.604 174.86 475.049 174.78 474.286C174.621 472.76 174.406 470.394 174.168 466.96C173.693 460.093 173.127 448.926 172.751 431.609C171.999 396.979 172 337.679 175.002 238.86C178.001 140.145 177.998 82.4626 177.251 49.4961C176.877 33.0143 176.318 22.7343 175.858 16.6094C175.627 13.5486 175.422 11.5349 175.279 10.3105C175.208 9.6989 175.153 9.28614 175.117 9.04102C175.1 8.91923 175.087 8.8392 175.08 8.79688C175.077 8.77673 175.075 8.76483 175.074 8.76172C175.03 8.5075 175.006 8.2543 175 8.00391V0H185V7.5166Z" fill="#F7A6B3" fill-opacity="0.5"/>
<path d="M225 7.36914C225 187.488 229.498 291.131 225 469.237V480H215V468.7H215.011C219.481 291.388 215.025 188.369 215.001 8.84375H215V0H225V7.36914Z" fill="#F7A6B3" fill-opacity="0.5"/>
<path d="M265 17.0381H264.986C261.626 115.767 261.626 229.936 262.469 319.49C262.89 364.308 263.523 402.947 264.05 430.38C264.313 444.096 264.55 455.011 264.722 462.495C264.807 466.237 264.877 469.122 264.925 471.07C264.947 471.983 264.965 472.691 264.978 473.185H265V480H255V474.24C254.999 474.208 254.999 474.161 254.997 474.098C254.994 473.971 254.989 473.783 254.982 473.533C254.97 473.034 254.952 472.291 254.928 471.314C254.88 469.361 254.81 466.471 254.725 462.724C254.553 455.228 254.316 444.301 254.052 430.571C253.524 403.112 252.891 364.44 252.469 319.584C251.625 229.912 251.624 115.467 255 16.4697V0H265V17.0381Z" fill="#F7A6B3" fill-opacity="0.5"/>
<path d="M305 12.9277C305.007 13.0219 305.016 13.1509 305.027 13.3145C305.053 13.693 305.09 14.259 305.138 15.0166C305.232 16.5323 305.366 18.8177 305.525 21.915C305.844 28.1105 306.263 37.5571 306.667 50.5977C307.476 76.679 308.226 117.142 308 174.742C307.752 237.76 307.002 311.304 306.313 369.088C305.969 397.981 305.641 422.937 305.398 440.669C305.277 449.535 305.178 456.595 305.108 461.439C305.074 463.861 305.046 465.73 305.027 466.992C305.018 467.623 305.012 468.103 305.007 468.425C305.004 468.585 305.002 468.708 305.001 468.789C305.001 468.807 305 468.824 305 468.838V480H295V467.866H295.014C295.018 467.589 295.022 467.248 295.028 466.846C295.047 465.584 295.075 463.717 295.109 461.296C295.179 456.454 295.278 449.395 295.399 440.531C295.642 422.804 295.97 397.854 296.314 368.969C297.003 311.194 297.752 237.68 298 174.702C298.226 117.207 297.476 76.8607 296.672 50.9072C296.27 37.931 295.854 28.5528 295.539 22.4287C295.382 19.367 295.25 17.1177 295.157 15.6396C295.111 14.9011 295.074 14.3542 295.05 13.9951C295.038 13.8161 295.029 13.6832 295.022 13.5967C295.022 13.5945 295.023 13.592 295.022 13.5898H295V0H305V12.9277Z" fill="#F7A6B3" fill-opacity="0.5"/>
<path d="M345 10.3486H344.987C344.983 10.4411 344.979 10.5535 344.975 10.6855C344.96 11.1198 344.938 11.7672 344.909 12.6182C344.852 14.3204 344.769 16.838 344.664 20.0967C344.455 26.6143 344.161 36.0973 343.821 47.9541C343.14 71.6686 342.276 104.878 341.542 142.853C340.074 218.822 339.126 313.789 341.199 389.967C342.012 419.842 342.96 440.544 343.703 453.76C344.075 460.368 344.396 465.104 344.622 468.18C344.736 469.717 344.826 470.84 344.887 471.573C344.918 471.94 344.941 472.21 344.956 472.386C344.964 472.473 344.969 472.538 344.973 472.579C344.974 472.59 344.975 472.6 344.976 472.607H345V480H335V473.321C334.999 473.304 334.997 473.286 334.995 473.267C334.978 473.074 334.953 472.787 334.921 472.404C334.857 471.638 334.764 470.483 334.649 468.914C334.417 465.777 334.094 460.983 333.719 454.321C332.97 440.998 332.018 420.199 331.202 390.239C329.123 313.821 330.075 218.664 331.544 142.659C332.279 104.647 333.144 71.4063 333.824 47.668C334.165 35.7989 334.46 26.3043 334.669 19.7764C334.774 16.5125 334.857 13.9892 334.914 12.2822C334.943 11.429 334.966 10.7792 334.981 10.3428C334.988 10.125 334.993 9.96013 334.997 9.84961C334.998 9.82103 334.999 9.79582 335 9.77441V0H345V10.3486Z" fill="#F7A6B3" fill-opacity="0.5"/>
<path d="M425 7.36914C425 187.488 429.498 291.131 425 469.237V480H415V468.7H415.011C419.481 291.388 415.025 188.369 415.001 8.84375H415V0H425V7.36914Z" fill="#F7A6B3" fill-opacity="0.5"/>
<path d="M465 17.0381H464.986C461.626 115.767 461.626 229.936 462.469 319.49C462.89 364.308 463.523 402.947 464.05 430.38C464.313 444.096 464.55 455.011 464.722 462.495C464.807 466.237 464.877 469.122 464.925 471.07C464.947 471.983 464.965 472.691 464.978 473.185H465V480H455V474.24C454.999 474.208 454.999 474.161 454.997 474.098C454.994 473.971 454.989 473.783 454.982 473.533C454.97 473.034 454.952 472.291 454.928 471.314C454.88 469.361 454.81 466.471 454.725 462.724C454.553 455.228 454.316 444.301 454.052 430.571C453.524 403.112 452.891 364.44 452.469 319.584C451.625 229.912 451.624 115.467 455 16.4697V0H465V17.0381Z" fill="#F7A6B3" fill-opacity="0.5"/>
<path d="M385 7.5166C385.005 7.54706 385.01 7.57892 385.015 7.6123C385.064 7.95545 385.131 8.45753 385.212 9.14941C385.374 10.533 385.591 12.6863 385.829 15.8594C386.306 22.2036 386.872 32.6651 387.248 49.2695C388.001 82.4758 387.999 140.349 384.997 239.164C381.999 337.876 382.001 396.992 382.748 431.393C383.122 448.591 383.682 459.596 384.144 466.27C384.375 469.605 384.581 471.853 384.727 473.248C384.799 473.945 384.857 474.427 384.895 474.725C384.913 474.873 384.926 474.975 384.935 475.034C384.936 475.045 384.937 475.054 384.939 475.062H385V480H375V476.18C374.992 476.119 374.983 476.052 374.974 475.979C374.926 475.604 374.86 475.049 374.78 474.286C374.621 472.76 374.406 470.394 374.168 466.96C373.693 460.093 373.127 448.926 372.751 431.609C371.999 396.979 372 337.679 375.002 238.86C378.001 140.145 377.998 82.4626 377.251 49.4961C376.877 33.0143 376.318 22.7343 375.858 16.6094C375.627 13.5486 375.422 11.5349 375.279 10.3105C375.208 9.6989 375.153 9.28614 375.117 9.04102C375.1 8.91923 375.087 8.8392 375.08 8.79688C375.077 8.77674 375.075 8.76484 375.074 8.76172C375.03 8.5075 375.006 8.2543 375 8.00391V0H385V7.5166Z" fill="#F7A6B3" fill-opacity="0.5"/>
<path d="M462.962 62.2499V62.2362C364.233 58.8757 250.064 58.876 160.51 59.7186C115.692 60.1403 77.0532 60.7726 49.6201 61.2997C35.9039 61.5632 24.9892 61.8003 17.5049 61.9716C13.7629 62.0572 10.8781 62.127 8.92969 62.1747C8.01665 62.197 7.30921 62.215 6.81543 62.2274V62.2499H0V52.2499L5.75977 52.2499C5.79155 52.2491 5.83945 52.2486 5.90234 52.2469C6.02857 52.2437 6.21741 52.2386 6.4668 52.2323C6.96561 52.2197 7.70876 52.2015 8.68555 52.1776C10.6391 52.1298 13.5289 52.0602 17.2764 51.9745C24.7718 51.803 35.6991 51.5654 49.4287 51.3016C76.8875 50.774 115.56 50.1407 160.416 49.7186C250.088 48.8749 364.533 48.8742 463.53 52.2499L480 52.2499V62.2499L462.962 62.2499Z" fill="#F7A6B3" fill-opacity="0.5"/>
<path d="M472.631 22.25C292.512 22.25 188.869 26.7483 10.7627 22.25L0 22.25V12.25L11.2998 12.25V12.2607C188.612 16.7315 291.631 12.2753 471.156 12.251V12.25L480 12.25V22.25H472.631Z" fill="#F7A6B3" fill-opacity="0.5"/>
<path d="M467.072 102.25C466.978 102.257 466.849 102.266 466.686 102.277C466.307 102.303 465.741 102.34 464.983 102.388C463.468 102.482 461.182 102.616 458.085 102.775C451.889 103.094 442.443 103.513 429.402 103.917C403.321 104.726 362.858 105.476 305.258 105.25C242.24 105.002 168.696 104.252 110.912 103.563C82.0191 103.219 57.0632 102.891 39.3311 102.648C30.4653 102.527 23.4045 102.428 18.5605 102.358C16.1387 102.324 14.2703 102.296 13.0078 102.277C12.3771 102.268 11.8972 102.262 11.5752 102.257C11.4145 102.254 11.2923 102.252 11.2109 102.251C11.1927 102.251 11.1764 102.25 11.1621 102.25H0V92.25H12.1338V92.2637C12.4113 92.2676 12.752 92.2724 13.1543 92.2783C14.4159 92.2968 16.2832 92.3247 18.7041 92.3594C23.5462 92.4288 30.6051 92.5282 39.4688 92.6494C57.1962 92.8919 82.1455 93.2204 111.031 93.5645C168.806 94.2525 242.32 95.0025 305.298 95.25C362.793 95.476 403.139 94.7264 429.093 93.9219C442.069 93.5196 451.447 93.1038 457.571 92.7891C460.633 92.6317 462.882 92.4996 464.36 92.4072C465.099 92.3611 465.646 92.3243 466.005 92.2998C466.184 92.2876 466.317 92.2786 466.403 92.2725C466.406 92.2723 466.408 92.2726 466.41 92.2725V92.25H480V102.25H467.072Z" fill="#F7A6B3" fill-opacity="0.5"/>
<path d="M469.651 142.25V142.236C469.559 142.233 469.446 142.229 469.314 142.224C468.88 142.209 468.233 142.188 467.382 142.159C465.68 142.102 463.162 142.018 459.903 141.914C453.386 141.705 443.903 141.41 432.046 141.07C408.331 140.39 375.122 139.526 337.147 138.792C261.178 137.323 166.211 136.376 90.0332 138.449C60.1578 139.262 39.4565 140.21 26.2402 140.953C19.6325 141.325 14.8959 141.645 11.8203 141.872C10.2829 141.985 9.16038 142.075 8.42676 142.136C8.05998 142.167 7.78995 142.19 7.61426 142.206C7.52662 142.214 7.46214 142.219 7.4209 142.222C7.40985 142.223 7.40038 142.224 7.39258 142.225V142.25H0V132.25H6.67871C6.69603 132.248 6.71426 132.247 6.7334 132.245C6.92612 132.228 7.21254 132.203 7.5957 132.171C8.36236 132.107 9.51741 132.014 11.0859 131.898C14.223 131.667 19.0171 131.343 25.6787 130.969C39.0024 130.219 59.8008 129.267 89.7607 128.452C166.179 126.372 261.336 127.324 337.341 128.794C375.353 129.529 408.594 130.393 432.332 131.074C444.201 131.414 453.696 131.709 460.224 131.919C463.488 132.023 466.011 132.107 467.718 132.164C468.571 132.192 469.221 132.215 469.657 132.23C469.875 132.238 470.04 132.243 470.15 132.247C470.179 132.248 470.204 132.249 470.226 132.25H480V142.25H469.651Z" fill="#F7A6B3" fill-opacity="0.5"/>
<path d="M472.631 422.25C292.512 422.25 188.869 426.748 10.7627 422.25H0V412.25H11.2998V412.261C188.612 416.731 291.631 412.275 471.156 412.251V412.25H480V422.25H472.631Z" fill="#F7A6B3" fill-opacity="0.5"/>
<path d="M462.962 462.25V462.236C364.233 458.876 250.064 458.876 160.51 459.719C115.692 460.14 77.0532 460.773 49.6201 461.3C35.9039 461.563 24.9892 461.8 17.5049 461.972C13.7629 462.057 10.8781 462.127 8.92969 462.175C8.01665 462.197 7.30921 462.215 6.81543 462.227V462.25H0V452.25H5.75977C5.79155 452.249 5.83945 452.249 5.90234 452.247C6.02857 452.244 6.21741 452.239 6.4668 452.232C6.96561 452.22 7.70876 452.202 8.68555 452.178C10.6391 452.13 13.5289 452.06 17.2764 451.974C24.7718 451.803 35.6991 451.565 49.4287 451.302C76.8875 450.774 115.56 450.141 160.416 449.719C250.088 448.875 364.533 448.874 463.53 452.25H480V462.25H462.962Z" fill="#F7A6B3" fill-opacity="0.5"/>
<path d="M472.483 182.25C472.453 182.255 472.421 182.26 472.388 182.265C472.045 182.314 471.542 182.381 470.851 182.462C469.467 182.624 467.314 182.841 464.141 183.079C457.796 183.556 447.335 184.122 430.73 184.498C397.524 185.251 339.651 185.249 240.836 182.247C142.124 179.249 83.0084 179.251 48.6074 179.998C31.4086 180.372 20.4045 180.932 13.7305 181.394C10.3947 181.625 8.14651 181.831 6.75195 181.977C6.05503 182.049 5.57255 182.107 5.27539 182.145C5.12715 182.163 5.02503 182.176 4.96582 182.185C4.9554 182.186 4.9463 182.188 4.93848 182.189V182.25H0V172.25H3.82031C3.88065 172.242 3.94761 172.233 4.02148 172.224C4.39634 172.176 4.95093 172.11 5.71387 172.03C7.23996 171.871 9.60559 171.656 13.04 171.418C19.9072 170.943 31.0738 170.377 48.3906 170.001C83.0214 169.249 142.321 169.25 241.14 172.252C339.855 175.251 397.537 175.248 430.504 174.501C446.986 174.127 457.266 173.568 463.391 173.108C466.451 172.877 468.465 172.672 469.689 172.529C470.301 172.458 470.714 172.403 470.959 172.367C471.081 172.35 471.161 172.337 471.203 172.33C471.223 172.327 471.235 172.325 471.238 172.324C471.492 172.28 471.746 172.256 471.996 172.25H480V182.25H472.483Z" fill="#F7A6B3" fill-opacity="0.5"/>
<path d="M472.631 222.25C292.512 222.25 188.869 226.748 10.7627 222.25H0V212.25H11.2998V212.261C188.612 216.731 291.631 212.275 471.156 212.251V212.25H480V222.25H472.631Z" fill="#F7A6B3" fill-opacity="0.5"/>
<path d="M462.962 262.25V262.236C364.233 258.876 250.064 258.876 160.51 259.719C115.692 260.14 77.0532 260.773 49.6201 261.3C35.9039 261.563 24.9892 261.8 17.5049 261.972C13.7629 262.057 10.8781 262.127 8.92969 262.175C8.01665 262.197 7.30921 262.215 6.81543 262.227V262.25H0V252.25H5.75977C5.79155 252.249 5.83945 252.249 5.90234 252.247C6.02857 252.244 6.21741 252.239 6.4668 252.232C6.96561 252.22 7.70876 252.202 8.68555 252.178C10.6391 252.13 13.5289 252.06 17.2764 251.974C24.7718 251.803 35.6991 251.565 49.4287 251.302C76.8875 250.774 115.56 250.141 160.416 249.719C250.088 248.875 364.533 248.874 463.53 252.25H480V262.25H462.962Z" fill="#F7A6B3" fill-opacity="0.5"/>
<path d="M467.072 302.25C466.978 302.257 466.849 302.266 466.686 302.277C466.307 302.303 465.741 302.34 464.983 302.388C463.468 302.482 461.182 302.616 458.085 302.775C451.889 303.094 442.443 303.513 429.402 303.917C403.321 304.726 362.858 305.476 305.258 305.25C242.24 305.002 168.696 304.252 110.912 303.563C82.0191 303.219 57.0632 302.891 39.3311 302.648C30.4653 302.527 23.4045 302.428 18.5605 302.358C16.1387 302.324 14.2703 302.296 13.0078 302.277C12.3771 302.268 11.8972 302.262 11.5752 302.257C11.4145 302.254 11.2923 302.252 11.2109 302.251C11.1927 302.251 11.1764 302.25 11.1621 302.25H0V292.25H12.1338V292.264C12.4113 292.268 12.752 292.272 13.1543 292.278C14.4159 292.297 16.2832 292.325 18.7041 292.359C23.5462 292.429 30.6051 292.528 39.4688 292.649C57.1962 292.892 82.1455 293.22 111.031 293.564C168.806 294.253 242.32 295.002 305.298 295.25C362.793 295.476 403.139 294.726 429.093 293.922C442.069 293.52 451.447 293.104 457.571 292.789C460.633 292.632 462.882 292.5 464.36 292.407C465.099 292.361 465.646 292.324 466.005 292.3C466.184 292.288 466.317 292.279 466.403 292.272C466.406 292.272 466.408 292.273 466.41 292.272V292.25H480V302.25H467.072Z" fill="#F7A6B3" fill-opacity="0.5"/>
<path d="M469.651 342.25V342.236C469.559 342.233 469.446 342.229 469.314 342.224C468.88 342.209 468.233 342.188 467.382 342.159C465.68 342.102 463.162 342.018 459.903 341.914C453.386 341.705 443.903 341.41 432.046 341.07C408.331 340.39 375.122 339.526 337.147 338.792C261.178 337.323 166.211 336.376 90.0332 338.449C60.1578 339.262 39.4565 340.21 26.2402 340.953C19.6325 341.325 14.8959 341.645 11.8203 341.872C10.2829 341.985 9.16038 342.075 8.42676 342.136C8.05999 342.167 7.78995 342.19 7.61426 342.206C7.52662 342.214 7.46214 342.219 7.4209 342.222C7.40985 342.223 7.40038 342.224 7.39258 342.225V342.25H0V332.25H6.67871C6.69603 332.248 6.71426 332.247 6.7334 332.245C6.92612 332.228 7.21254 332.203 7.5957 332.171C8.36236 332.107 9.51741 332.014 11.0859 331.898C14.223 331.667 19.0171 331.343 25.6787 330.969C39.0024 330.219 59.8008 329.267 89.7607 328.452C166.179 326.372 261.336 327.324 337.341 328.794C375.353 329.529 408.594 330.393 432.332 331.074C444.201 331.414 453.696 331.709 460.224 331.919C463.488 332.023 466.011 332.107 467.718 332.164C468.571 332.192 469.221 332.215 469.657 332.23C469.875 332.238 470.04 332.243 470.15 332.247C470.179 332.248 470.204 332.249 470.226 332.25H480V342.25H469.651Z" fill="#F7A6B3" fill-opacity="0.5"/>
<path d="M472.483 382.25C472.453 382.255 472.421 382.26 472.388 382.265C472.045 382.314 471.542 382.381 470.851 382.462C469.467 382.624 467.314 382.841 464.141 383.079C457.796 383.556 447.335 384.122 430.73 384.498C397.524 385.251 339.651 385.249 240.836 382.247C142.124 379.249 83.0084 379.251 48.6074 379.998C31.4086 380.372 20.4045 380.932 13.7305 381.394C10.3947 381.625 8.14651 381.831 6.75195 381.977C6.05503 382.049 5.57255 382.107 5.27539 382.145C5.12715 382.163 5.02503 382.176 4.96582 382.185C4.9554 382.186 4.9463 382.188 4.93848 382.189V382.25H0V372.25H3.82031C3.88065 372.242 3.94761 372.233 4.02148 372.224C4.39634 372.176 4.95093 372.11 5.71387 372.03C7.23996 371.871 9.60559 371.656 13.04 371.418C19.9072 370.943 31.0738 370.377 48.3906 370.001C83.0214 369.249 142.321 369.25 241.14 372.252C339.855 375.251 397.537 375.248 430.504 374.501C446.986 374.127 457.266 373.568 463.391 373.108C466.451 372.877 468.465 372.672 469.689 372.529C470.301 372.458 470.714 372.403 470.959 372.367C471.081 372.35 471.161 372.337 471.203 372.33C471.223 372.327 471.235 372.325 471.238 372.324C471.492 372.28 471.746 372.256 471.996 372.25H480V382.25H472.483Z" fill="#F7A6B3" fill-opacity="0.5"/>
<circle cx="135" cy="219" r="4" fill="#E24A54" fill-opacity="0.5"/>
<circle cx="257" cy="133" r="4" fill="#E24A54" fill-opacity="0.5"/>
<circle cx="136" cy="175" r="4" fill="#E24A54" fill-opacity="0.5"/>
<circle cx="179" cy="255" r="4" fill="#E24A54" fill-opacity="0.5"/>
<circle cx="135" cy="255" r="5" fill="#E24A54" fill-opacity="0.5"/>
<circle cx="99" cy="456" r="5" fill="#E24A54" fill-opacity="0.5"/>
<circle cx="57" cy="220" r="5" fill="#E24A54" fill-opacity="0.5"/>
<circle cx="100" cy="19" r="5" fill="#E24A54" fill-opacity="0.5"/>
<circle cx="57" cy="98" r="5" fill="#E24A54" fill-opacity="0.5"/>
<circle cx="20" cy="177" r="5" fill="#E24A54" fill-opacity="0.5"/>
<circle cx="22" cy="376" r="5" fill="#E24A54" fill-opacity="0.5"/>
<circle cx="102" cy="298" r="5" fill="#E24A54" fill-opacity="0.5"/>
<circle cx="336" cy="134" r="5" fill="#E24A54" fill-opacity="0.5"/>
<circle cx="382" cy="180" r="5" fill="#E24A54" fill-opacity="0.5"/>
<circle cx="381" cy="17" r="5" fill="#E24A54" fill-opacity="0.5"/>
<circle cx="260" cy="17" r="5" fill="#E24A54" fill-opacity="0.5"/>
<circle cx="258" cy="100" r="5" fill="#E24A54" fill-opacity="0.5"/>
<circle cx="457" cy="136" r="5" fill="#E24A54" fill-opacity="0.5"/>
<circle cx="420" cy="56" r="5" fill="#E24A54" fill-opacity="0.5"/>
<circle cx="177" cy="419" r="5" fill="#E24A54" fill-opacity="0.5"/>
<circle cx="420" cy="418" r="5" fill="#E24A54" fill-opacity="0.5"/>
<circle cx="220" cy="54" r="5" fill="#E24A54" fill-opacity="0.5"/>
<circle cx="457" cy="257" r="5" fill="#E24A54" fill-opacity="0.5"/>
<circle cx="258" cy="377" r="5" fill="#E24A54" fill-opacity="0.5"/>
<circle cx="302" cy="332" r="5" fill="#E24A54" fill-opacity="0.5"/>
<circle cx="180" cy="219" r="5" fill="#E24A54" fill-opacity="0.5"/>
<circle cx="222" cy="300" r="5" fill="#E24A54" fill-opacity="0.5"/>
<circle cx="137" cy="99" r="5" fill="#E24A54" fill-opacity="0.5"/>
<circle cx="181.5" cy="175.5" r="4.5" fill="#E24A54" fill-opacity="0.5"/>
<circle cx="134.5" cy="332.5" r="4.5" fill="#E24A54" fill-opacity="0.5"/>
<circle cx="220.5" cy="131.5" r="4.5" fill="#E24A54" fill-opacity="0.5"/>
<circle cx="257.5" cy="177.5" r="4.5" fill="#E24A54" fill-opacity="0.5"/>
<circle cx="302.5" cy="132.5" r="4.5" fill="#E24A54" fill-opacity="0.5"/>
<circle cx="257.5" cy="53.5" r="4.5" fill="#E24A54" fill-opacity="0.5"/>
<circle cx="419.5" cy="98.5" r="4.5" fill="#E24A54" fill-opacity="0.5"/>
<circle cx="339.5" cy="18.5" r="4.5" fill="#E24A54" fill-opacity="0.5"/>
<circle cx="301.5" cy="254.5" r="4.5" fill="#E24A54" fill-opacity="0.5"/>
<circle cx="334.5" cy="333.5" r="4.5" fill="#E24A54" fill-opacity="0.5"/>
<circle cx="257.5" cy="253.5" r="4.5" fill="#E24A54" fill-opacity="0.5"/>
<circle cx="301.5" cy="300.5" r="4.5" fill="#E24A54" fill-opacity="0.5"/>
<circle cx="299.5" cy="418.5" r="4.5" fill="#E24A54" fill-opacity="0.5"/>
<circle cx="421.5" cy="299.5" r="4.5" fill="#E24A54" fill-opacity="0.5"/>
<circle cx="377.5" cy="334.5" r="4.5" fill="#E24A54" fill-opacity="0.5"/>
<circle cx="301.5" cy="378.5" r="4.5" fill="#E24A54" fill-opacity="0.5"/>
<circle cx="458.5" cy="417.5" r="4.5" fill="#E24A54" fill-opacity="0.5"/>
<circle cx="457.5" cy="336.5" r="4.5" fill="#E24A54" fill-opacity="0.5"/>
<circle cx="457.5" cy="177.5" r="4.5" fill="#E24A54" fill-opacity="0.5"/>
<circle cx="339.5" cy="53.5" r="4.5" fill="#E24A54" fill-opacity="0.5"/>
<circle cx="379.5" cy="455.5" r="4.5" fill="#E24A54" fill-opacity="0.5"/>
<circle cx="182.5" cy="98.5" r="4.5" fill="#E24A54" fill-opacity="0.5"/>
<circle cx="59.5" cy="18.5" r="4.5" fill="#E24A54" fill-opacity="0.5"/>
<circle cx="102.5" cy="174.5" r="4.5" fill="#E24A54" fill-opacity="0.5"/>
<circle cx="21.5" cy="256.5" r="4.5" fill="#E24A54" fill-opacity="0.5"/>
<circle cx="57.5" cy="334.5" r="4.5" fill="#E24A54" fill-opacity="0.5"/>
<circle cx="20.5" cy="456.5" r="4.5" fill="#E24A54" fill-opacity="0.5"/>
<circle cx="101.5" cy="419.5" r="4.5" fill="#E24A54" fill-opacity="0.5"/>
<circle cx="135.5" cy="375.5" r="4.5" fill="#E24A54" fill-opacity="0.5"/>
<circle cx="56.5" cy="134.5" r="4.5" fill="#E24A54" fill-opacity="0.5"/>
<circle cx="20.5" cy="97.5" r="4.5" fill="#E24A54" fill-opacity="0.5"/>
<circle cx="19.5" cy="58.5" r="4.5" fill="#E24A54" fill-opacity="0.5"/>
<circle cx="181.5" cy="18.5" r="4.5" fill="#E24A54" fill-opacity="0.5"/>
<circle cx="177.5" cy="299.5" r="4.5" fill="#E24A54" fill-opacity="0.5"/>
<circle cx="221.5" cy="254.5" r="4.5" fill="#E24A54" fill-opacity="0.5"/>
<circle cx="136.5" cy="133.5" r="4.5" fill="#E24A54" fill-opacity="0.5"/>
<circle cx="102.5" cy="255.5" r="4.5" fill="#E24A54" fill-opacity="0.5"/>
<circle cx="221" cy="219" r="4" fill="#E24A54" fill-opacity="0.5"/>
<circle cx="335" cy="301" r="4" fill="#E24A54" fill-opacity="0.5"/>
<circle cx="383" cy="101" r="4" fill="#E24A54" fill-opacity="0.5"/>
<circle cx="457" cy="97" r="4" fill="#E24A54" fill-opacity="0.5"/>
<circle cx="459" cy="57" r="4" fill="#E24A54" fill-opacity="0.5"/>
<circle cx="460" cy="18" r="4" fill="#E24A54" fill-opacity="0.5"/>
<circle cx="183" cy="133" r="4" fill="#E24A54" fill-opacity="0.5"/>
<circle cx="221" cy="101" r="4" fill="#E24A54" fill-opacity="0.5"/>
<circle cx="336" cy="181" r="4" fill="#E24A54" fill-opacity="0.5"/>
<circle cx="221" cy="333" r="4" fill="#E24A54" fill-opacity="0.5"/>
<circle cx="221" cy="177" r="4" fill="#E24A54" fill-opacity="0.5"/>
<circle cx="335" cy="218" r="4" fill="#E24A54" fill-opacity="0.5"/>
<circle cx="135" cy="299" r="4" fill="#E24A54" fill-opacity="0.5"/>
<circle cx="257" cy="300" r="4" fill="#E24A54" fill-opacity="0.5"/>
<circle cx="258" cy="333" r="4" fill="#E24A54" fill-opacity="0.5"/>
<circle cx="259" cy="418" r="4" fill="#E24A54" fill-opacity="0.5"/>
<circle cx="383" cy="55" r="4" fill="#E24A54" fill-opacity="0.5"/>
<circle cx="259" cy="418" r="4" fill="#E24A54" fill-opacity="0.5"/>
<circle cx="177" cy="375" r="4" fill="#E24A54" fill-opacity="0.5"/>
<circle cx="138" cy="456" r="4" fill="#E24A54" fill-opacity="0.5"/>
<circle cx="137" cy="419" r="4" fill="#E24A54" fill-opacity="0.5"/>
<circle cx="58" cy="417" r="4" fill="#E24A54" fill-opacity="0.5"/>
<circle cx="60" cy="456" r="4" fill="#E24A54" fill-opacity="0.5"/>
<circle cx="21" cy="417" r="4" fill="#E24A54" fill-opacity="0.5"/>
<circle cx="58" cy="373" r="4" fill="#E24A54" fill-opacity="0.5"/>
<circle cx="101" cy="374" r="4" fill="#E24A54" fill-opacity="0.5"/>
<circle cx="101" cy="333" r="4" fill="#E24A54" fill-opacity="0.5"/>
<circle cx="21" cy="336" r="4" fill="#E24A54" fill-opacity="0.5"/>
<circle cx="21" cy="297" r="4" fill="#E24A54" fill-opacity="0.5"/>
<circle cx="57" cy="298" r="4" fill="#E24A54" fill-opacity="0.5"/>
<circle cx="56" cy="256" r="4" fill="#E24A54" fill-opacity="0.5"/>
<circle cx="102" cy="218" r="4" fill="#E24A54" fill-opacity="0.5"/>
<circle cx="21" cy="219" r="4" fill="#E24A54" fill-opacity="0.5"/>
<circle cx="57" cy="174" r="4" fill="#E24A54" fill-opacity="0.5"/>
<circle cx="21" cy="137" r="4" fill="#E24A54" fill-opacity="0.5"/>
<circle cx="103" cy="133" r="4" fill="#E24A54" fill-opacity="0.5"/>
<circle cx="102" cy="99" r="4" fill="#E24A54" fill-opacity="0.5"/>
<circle cx="102" cy="55" r="4" fill="#E24A54" fill-opacity="0.5"/>
<circle cx="138" cy="55" r="4" fill="#E24A54" fill-opacity="0.5"/>
<circle cx="140" cy="18" r="4" fill="#E24A54" fill-opacity="0.5"/>
<circle cx="57" cy="56" r="4" fill="#E24A54" fill-opacity="0.5"/>
<circle cx="20" cy="17" r="4" fill="#E24A54" fill-opacity="0.5"/>
<circle cx="301" cy="454" r="4" fill="#E24A54" fill-opacity="0.5"/>
<circle cx="376" cy="380" r="4" fill="#E24A54" fill-opacity="0.5"/>
<circle cx="420" cy="180" r="4" fill="#E24A54" fill-opacity="0.5"/>
<circle cx="302" cy="219" r="4" fill="#E24A54" fill-opacity="0.5"/>
<circle cx="461" cy="458" r="4" fill="#E24A54" fill-opacity="0.5"/>
<circle cx="420" cy="336" r="4" fill="#E24A54" fill-opacity="0.5"/>
<circle cx="421" cy="218" r="4" fill="#E24A54" fill-opacity="0.5"/>
<circle cx="220" cy="454" r="4" fill="#E24A54" fill-opacity="0.5"/>
<circle cx="178" cy="455" r="4" fill="#E24A54" fill-opacity="0.5"/>
<circle cx="221" cy="419" r="4" fill="#E24A54" fill-opacity="0.5"/>
<circle cx="258" cy="455" r="4" fill="#E24A54" fill-opacity="0.5"/>
<circle cx="221" cy="376" r="4" fill="#E24A54" fill-opacity="0.5"/>
<circle cx="336" cy="379" r="4" fill="#E24A54" fill-opacity="0.5"/>
<circle cx="337" cy="418" r="4" fill="#E24A54" fill-opacity="0.5"/>
<circle cx="338" cy="454" r="4" fill="#E24A54" fill-opacity="0.5"/>
<circle cx="377" cy="417" r="4" fill="#E24A54" fill-opacity="0.5"/>
<circle cx="421" cy="457" r="4" fill="#E24A54" fill-opacity="0.5"/>
<circle cx="177" cy="332" r="4" fill="#E24A54" fill-opacity="0.5"/>
<circle cx="421" cy="380" r="4" fill="#E24A54" fill-opacity="0.5"/>
<circle cx="457" cy="379" r="4" fill="#E24A54" fill-opacity="0.5"/>
<circle cx="378" cy="300" r="4" fill="#E24A54" fill-opacity="0.5"/>
<circle cx="458" cy="298" r="4" fill="#E24A54" fill-opacity="0.5"/>
<circle cx="333" cy="254" r="4" fill="#E24A54" fill-opacity="0.5"/>
<circle cx="421" cy="255" r="4" fill="#E24A54" fill-opacity="0.5"/>
<circle cx="380" cy="218" r="4" fill="#E24A54" fill-opacity="0.5"/>
<circle cx="457" cy="217" r="4" fill="#E24A54" fill-opacity="0.5"/>
<circle cx="337" cy="100" r="4" fill="#E24A54" fill-opacity="0.5"/>
<circle cx="303" cy="178" r="4" fill="#E24A54" fill-opacity="0.5"/>
<circle cx="301" cy="18" r="4" fill="#E24A54" fill-opacity="0.5"/>
<circle cx="421" cy="135" r="4" fill="#E24A54" fill-opacity="0.5"/>
<circle cx="421" cy="18" r="4" fill="#E24A54" fill-opacity="0.5"/>
<circle cx="220" cy="18" r="4" fill="#E24A54" fill-opacity="0.5"/>
<circle cx="302" cy="99" r="4" fill="#E24A54" fill-opacity="0.5"/>
<circle cx="182" cy="54" r="4" fill="#E24A54" fill-opacity="0.5"/>
<circle cx="379" cy="254" r="4" fill="#E24A54" fill-opacity="0.5"/>
<circle cx="383" cy="135" r="4" fill="#E24A54" fill-opacity="0.5"/>
<circle cx="302" cy="54" r="4" fill="#E24A54" fill-opacity="0.5"/>
<circle cx="256.5" cy="218.5" r="4.5" fill="#E24A54" fill-opacity="0.5"/>
</g>
<defs>
<clipPath id="clip0_18_140">
<rect width="480" height="480" fill="white"/>
</clipPath>
</defs>
</svg>
